<svg xmlns="http://www.w3.org/2000/svg" version="1.1" xmlns:xlink="http://www.w3.org/1999/xlink" xmlns:svgjs="http://svgjs.dev/svgjs" viewBox="0 0 800 800"><defs><linearGradient x1="50%" y1="0%" x2="50%" y2="100%" id="ffflurry-grad" gradientTransform="rotate(270)"><stop stop-color="#17141d" stop-opacity="1" offset="0%"></stop><stop stop-color="hsl(1.4, 100%, 67%)" stop-opacity="1" offset="45%"></stop><stop stop-color="hsl(37, 91%, 55%)" stop-opacity="1" offset="100%"></stop></linearGradient></defs><rect width="100%" height="100%" fill="#17141d"></rect><g fill="url(#ffflurry-grad)"><rect width="84" height="1" x="44" y="296.5" rx="0.5" transform="rotate(90, 86, 297)" opacity="0.10"></rect><rect width="82" height="1" x="494" y="405.5" rx="0.5" transform="rotate(90, 535, 406)" opacity="0.72"></rect><rect width="76" height="1" x="190" y="722.5" rx="0.5" transform="rotate(90, 228, 723)" opacity="0.80"></rect><rect width="72" height="1" x="691" y="494.5" rx="0.5" transform="rotate(90, 727, 495)" opacity="0.46"></rect><rect width="54" height="1" x="326" y="53.5" rx="0.5" transform="rotate(90, 353, 54)" opacity="0.31"></rect><rect width="71" height="1" x="265.5" y="573.5" rx="0.5" transform="rotate(90, 301, 574)" opacity="0.09"></rect><rect width="79" height="1" x="422.5" y="719.5" rx="0.5" transform="rotate(90, 462, 720)" opacity="0.62"></rect><rect width="90" height="1" x="63" y="89.5" rx="0.5" transform="rotate(90, 108, 90)" opacity="0.69"></rect><rect width="66" height="1" x="386" y="497.5" rx="0.5" transform="rotate(90, 419, 498)" opacity="0.89"></rect><rect width="96" height="1" x="186" y="396.5" rx="0.5" transform="rotate(90, 234, 397)" opacity="0.78"></rect><rect width="84" height="1" x="541" y="581.5" rx="0.5" transform="rotate(90, 583, 582)" opacity="0.09"></rect><rect width="94" height="1" x="429" y="238.5" rx="0.5" transform="rotate(90, 476, 239)" opacity="0.27"></rect><rect width="98" height="1" x="652" y="283.5" rx="0.5" transform="rotate(90, 701, 284)" opacity="0.85"></rect><rect width="87" height="1" x="654.5" y="711.5" rx="0.5" transform="rotate(90, 698, 712)" opacity="0.29"></rect><rect width="87" height="1" x="605.5" y="86.5" rx="0.5" transform="rotate(90, 649, 87)" opacity="0.83"></rect><rect width="85" height="1" x="262.5" y="194.5" rx="0.5" transform="rotate(90, 305, 195)" opacity="0.82"></rect><rect width="94" height="1" x="31" y="611.5" rx="0.5" transform="rotate(90, 78, 612)" opacity="0.79"></rect></g></svg>