<svg id="visual" viewBox="0 0 1080 1400" width="1080" height="1400" xmlns="http://www.w3.org/2000/svg" xmlns:xlink="http://www.w3.org/1999/xlink" version="1.1"><rect x="0" y="0" width="1080" height="1400" fill="#17141d"></rect><defs><linearGradient id="grad1_0" x1="0%" y1="0%" x2="100%" y2="100%"><stop offset="30%" stop-color="#ff0066" stop-opacity="1"></stop><stop offset="70%" stop-color="#ff0066" stop-opacity="1"></stop></linearGradient></defs><defs><linearGradient id="grad1_1" x1="0%" y1="0%" x2="100%" y2="100%"><stop offset="30%" stop-color="#ff0066" stop-opacity="1"></stop><stop offset="70%" stop-color="#da106d" stop-opacity="1"></stop></linearGradient></defs><defs><linearGradient id="grad1_2" x1="0%" y1="0%" x2="100%" y2="100%"><stop offset="30%" stop-color="#b31f6e" stop-opacity="1"></stop><stop offset="70%" stop-color="#da106d" stop-opacity="1"></stop></linearGradient></defs><defs><linearGradient id="grad1_3" x1="0%" y1="0%" x2="100%" y2="100%"><stop offset="30%" stop-color="#b31f6e" stop-opacity="1"></stop><stop offset="70%" stop-color="#8c2669" stop-opacity="1"></stop></linearGradient></defs><defs><linearGradient id="grad1_4" x1="0%" y1="0%" x2="100%" y2="100%"><stop offset="30%" stop-color="#68275d" stop-opacity="1"></stop><stop offset="70%" stop-color="#8c2669" stop-opacity="1"></stop></linearGradient></defs><defs><linearGradient id="grad1_5" x1="0%" y1="0%" x2="100%" y2="100%"><stop offset="30%" stop-color="#68275d" stop-opacity="1"></stop><stop offset="70%" stop-color="#47244b" stop-opacity="1"></stop></linearGradient></defs><defs><linearGradient id="grad1_6" x1="0%" y1="0%" x2="100%" y2="100%"><stop offset="30%" stop-color="#2b1e35" stop-opacity="1"></stop><stop offset="70%" stop-color="#47244b" stop-opacity="1"></stop></linearGradient></defs><defs><linearGradient id="grad1_7" x1="0%" y1="0%" x2="100%" y2="100%"><stop offset="30%" stop-color="#2b1e35" stop-opacity="1"></stop><stop offset="70%" stop-color="#17141d" stop-opacity="1"></stop></linearGradient></defs><defs><linearGradient id="grad2_0" x1="0%" y1="0%" x2="100%" y2="100%"><stop offset="30%" stop-color="#ff0066" stop-opacity="1"></stop><stop offset="70%" stop-color="#ff0066" stop-opacity="1"></stop></linearGradient></defs><defs><linearGradient id="grad2_1" x1="0%" y1="0%" x2="100%" y2="100%"><stop offset="30%" stop-color="#da106d" stop-opacity="1"></stop><stop offset="70%" stop-color="#ff0066" stop-opacity="1"></stop></linearGradient></defs><defs><linearGradient id="grad2_2" x1="0%" y1="0%" x2="100%" y2="100%"><stop offset="30%" stop-color="#da106d" stop-opacity="1"></stop><stop offset="70%" stop-color="#b31f6e" stop-opacity="1"></stop></linearGradient></defs><defs><linearGradient id="grad2_3" x1="0%" y1="0%" x2="100%" y2="100%"><stop offset="30%" stop-color="#8c2669" stop-opacity="1"></stop><stop offset="70%" stop-color="#b31f6e" stop-opacity="1"></stop></linearGradient></defs><defs><linearGradient id="grad2_4" x1="0%" y1="0%" x2="100%" y2="100%"><stop offset="30%" stop-color="#8c2669" stop-opacity="1"></stop><stop offset="70%" stop-color="#68275d" stop-opacity="1"></stop></linearGradient></defs><defs><linearGradient id="grad2_5" x1="0%" y1="0%" x2="100%" y2="100%"><stop offset="30%" stop-color="#47244b" stop-opacity="1"></stop><stop offset="70%" stop-color="#68275d" stop-opacity="1"></stop></linearGradient></defs><defs><linearGradient id="grad2_6" x1="0%" y1="0%" x2="100%" y2="100%"><stop offset="30%" stop-color="#47244b" stop-opacity="1"></stop><stop offset="70%" stop-color="#2b1e35" stop-opacity="1"></stop></linearGradient></defs><defs><linearGradient id="grad2_7" x1="0%" y1="0%" x2="100%" y2="100%"><stop offset="30%" stop-color="#17141d" stop-opacity="1"></stop><stop offset="70%" stop-color="#2b1e35" stop-opacity="1"></stop></linearGradient></defs><g transform="translate(1080, 0)"><path d="M0 588C-46.1 589.7 -92.2 591.4 -131.3 575.2C-170.4 559 -202.6 525 -244.3 507.2C-286 489.5 -337.2 488 -364.7 457.4C-392.3 426.7 -396.2 366.8 -406.6 324.2C-416.9 281.6 -433.6 256.3 -477.5 230C-521.4 203.6 -592.6 176.2 -603.3 137.7C-614.1 99.2 -564.6 49.6 -515 0L0 0Z" fill="#201929"></path><path d="M0 514.5C-40.3 516 -80.6 517.5 -114.9 503.3C-149.1 489.2 -177.3 459.4 -213.7 443.8C-250.2 428.3 -295 427 -319.1 400.2C-343.3 373.4 -346.7 321 -355.7 283.7C-364.8 246.4 -379.4 224.3 -417.8 201.2C-456.3 178.2 -518.5 154.2 -527.9 120.5C-537.4 86.8 -494 43.4 -450.6 0L0 0Z" fill="#382141"></path><path d="M0 441C-34.6 442.3 -69.1 443.5 -98.5 431.4C-127.8 419.3 -151.9 393.7 -183.2 380.4C-214.5 367.1 -252.9 366 -273.6 343C-294.2 320 -297.2 275.1 -304.9 243.2C-312.7 211.2 -325.2 192.2 -358.1 172.5C-391.1 152.7 -444.4 132.2 -452.5 103.3C-460.6 74.4 -423.4 37.2 -386.2 0L0 0Z" fill="#562655"></path><path d="M0 367.5C-28.8 368.6 -57.6 369.6 -82.1 359.5C-106.5 349.4 -126.6 328.1 -152.7 317C-178.7 305.9 -210.7 305 -228 285.9C-245.2 266.7 -247.6 229.3 -254.1 202.6C-260.5 176 -271 160.2 -298.4 143.7C-325.9 127.3 -370.3 110.1 -377.1 86.1C-383.8 62 -352.9 31 -321.9 0L0 0Z" fill="#7a2764"></path><path d="M0 294C-23 294.8 -46.1 295.7 -65.6 287.6C-85.2 279.5 -101.3 262.5 -122.1 253.6C-143 244.7 -168.6 244 -182.4 228.7C-196.2 213.3 -198.1 183.4 -203.3 162.1C-208.4 140.8 -216.8 128.2 -238.8 115C-260.7 101.8 -296.3 88.1 -301.7 68.9C-307.1 49.6 -282.3 24.8 -257.5 0L0 0Z" fill="#a0236c"></path><path d="M0 220.5C-17.3 221.1 -34.6 221.8 -49.2 215.7C-63.9 209.6 -76 196.9 -91.6 190.2C-107.2 183.6 -126.4 183 -136.8 171.5C-147.1 160 -148.6 137.6 -152.5 121.6C-156.3 105.6 -162.6 96.1 -179.1 86.2C-195.5 76.4 -222.2 66.1 -226.3 51.6C-230.3 37.2 -211.7 18.6 -193.1 0L0 0Z" fill="#c7196f"></path><path d="M0 147C-11.5 147.4 -23 147.8 -32.8 143.8C-42.6 139.8 -50.6 131.2 -61.1 126.8C-71.5 122.4 -84.3 122 -91.2 114.3C-98.1 106.7 -99.1 91.7 -101.6 81.1C-104.2 70.4 -108.4 64.1 -119.4 57.5C-130.4 50.9 -148.1 44.1 -150.8 34.4C-153.5 24.8 -141.1 12.4 -128.7 0L0 0Z" fill="#ed066b"></path><path d="M0 73.5C-5.8 73.7 -11.5 73.9 -16.4 71.9C-21.3 69.9 -25.3 65.6 -30.5 63.4C-35.7 61.2 -42.1 61 -45.6 57.2C-49 53.3 -49.5 45.9 -50.8 40.5C-52.1 35.2 -54.2 32 -59.7 28.7C-65.2 25.5 -74.1 22 -75.4 17.2C-76.8 12.4 -70.6 6.2 -64.4 0L0 0Z" fill="#ff0066"></path></g><g transform="translate(0, 1400)"><path d="M0 -522C42.3 -540.7 84.5 -559.4 127.9 -560.6C171.4 -561.8 216 -545.4 247.7 -514.5C279.5 -483.5 298.5 -437.8 321.7 -403.4C344.9 -369 372.3 -345.8 405 -323C437.7 -300.1 475.8 -277.7 514.5 -247.7C553.1 -217.8 592.3 -180.3 603.3 -137.7C614.4 -95.2 597.2 -47.6 580 0L0 0Z" fill="#201929"></path><path d="M0 -456.7C37 -473.1 74 -489.5 112 -490.5C150 -491.5 189 -477.3 216.8 -450.1C244.6 -423 261.2 -383.1 281.5 -353C301.8 -322.9 325.7 -302.6 354.4 -282.6C383 -262.6 416.3 -243 450.1 -216.8C484 -190.6 518.3 -157.7 527.9 -120.5C537.6 -83.3 522.5 -41.6 507.5 0L0 0Z" fill="#382141"></path><path d="M0 -391.5C31.7 -405.5 63.4 -419.6 96 -420.4C128.5 -421.3 162 -409.1 185.8 -385.8C209.7 -362.6 223.9 -328.4 241.3 -302.6C258.7 -276.8 279.2 -259.3 303.7 -242.2C328.3 -225.1 356.9 -208.3 385.8 -185.8C414.8 -163.3 444.2 -135.2 452.5 -103.3C460.8 -71.4 447.9 -35.7 435 0L0 0Z" fill="#562655"></path><path d="M0 -326.2C26.4 -337.9 52.8 -349.6 80 -350.4C107.1 -351.1 135 -340.9 154.8 -321.5C174.7 -302.2 186.6 -273.7 201.1 -252.1C215.6 -230.6 232.7 -216.1 253.1 -201.9C273.6 -187.6 297.4 -173.6 321.5 -154.8C345.7 -136.1 370.2 -112.7 377.1 -86.1C384 -59.5 373.2 -29.7 362.5 0L0 0Z" fill="#7a2764"></path><path d="M0 -261C21.1 -270.4 42.3 -279.7 64 -280.3C85.7 -280.9 108 -272.7 123.9 -257.2C139.8 -241.7 149.3 -218.9 160.9 -201.7C172.5 -184.5 186.1 -172.9 202.5 -161.5C218.9 -150.1 237.9 -138.9 257.2 -123.9C276.6 -108.9 296.2 -90.1 301.7 -68.9C307.2 -47.6 298.6 -23.8 290 0L0 0Z" fill="#a0236c"></path><path d="M0 -195.7C15.8 -202.8 31.7 -209.8 48 -210.2C64.3 -210.7 81 -204.5 92.9 -192.9C104.8 -181.3 112 -164.2 120.6 -151.3C129.3 -138.4 139.6 -129.7 151.9 -121.1C164.1 -112.6 178.4 -104.1 192.9 -92.9C207.4 -81.7 222.1 -67.6 226.3 -51.6C230.4 -35.7 223.9 -17.8 217.5 0L0 0Z" fill="#c7196f"></path><path d="M0 -130.5C10.6 -135.2 21.1 -139.9 32 -140.1C42.8 -140.4 54 -136.4 61.9 -128.6C69.9 -120.9 74.6 -109.5 80.4 -100.9C86.2 -92.3 93.1 -86.4 101.2 -80.7C109.4 -75 119 -69.4 128.6 -61.9C138.3 -54.4 148.1 -45.1 150.8 -34.4C153.6 -23.8 149.3 -11.9 145 0L0 0Z" fill="#ed066b"></path><path d="M0 -65.2C5.3 -67.6 10.6 -69.9 16 -70.1C21.4 -70.2 27 -68.2 31 -64.3C34.9 -60.4 37.3 -54.7 40.2 -50.4C43.1 -46.1 46.5 -43.2 50.6 -40.4C54.7 -37.5 59.5 -34.7 64.3 -31C69.1 -27.2 74 -22.5 75.4 -17.2C76.8 -11.9 74.6 -5.9 72.5 0L0 0Z" fill="#ff0066"></path></g></svg>