<svg xmlns="http://www.w3.org/2000/svg" version="1.1" xmlns:xlink="http://www.w3.org/1999/xlink" xmlns:svgjs="http://svgjs.dev/svgjs" viewBox="0 0 800 800" opacity="1"><defs><linearGradient x1="50%" y1="0%" x2="50%" y2="100%" id="ccchaos-grad"><stop stop-color="#ff8a00" stop-opacity="1" offset="0%"></stop><stop stop-color="#bd10e0" stop-opacity="1" offset="100%"></stop></linearGradient></defs><g stroke-width="2" stroke="url(#ccchaos-grad)" fill="none" stroke-linecap="round"><path d="M377.84 57.26Q386.01 62.77 394.42 68.68 403.08 74.98 412.01 81.66 421.21 88.67 430.69 95.95 440.46 103.45 450.52 111.1 460.86 118.81 471.48 126.51 482.36 134.1 493.49 141.52 504.86 148.67 516.43 155.48 528.2 161.9 540.12 167.87 552.17 173.36 564.32 178.33 576.53 182.79 588.77 186.74 600.99 190.22 613.16 193.26 625.24 195.93 637.19 198.29 648.98 200.45 660.56 202.47 671.89 204.48 682.96 206.57 693.71 208.83 704.13 211.38 718.68 220.97 720.91 237.6 717.16 247.57 712.09 257.54 705.91 267.5 698.89 277.47 691.32 287.43 683.52 297.4 675.83 307.37 668.57 317.33 662.04 327.3 656.54 337.27 652.29 347.23 649.46 357.2 648.19 367.17 648.52 377.13 650.45 387.1 653.88 397.06 658.68 407.03 664.63 417 671.5 426.96 678.97 436.93 686.75 446.9 694.49 456.86 701.88 466.83 708.59 476.8 714.34 486.76 718.88 496.73 722.03 506.7 723.65 516.66 723.68 526.63 722.1 536.6 711.35 544.3 700.28 552.87 688.91 562.2 677.28 572.18 665.43 582.65 653.4 593.45 641.22 604.41 628.94 615.33 616.59 626.03 604.22 636.34 591.87 646.07 579.57 655.08 567.35 663.23 555.27 670.42 543.34 676.58 531.6 681.65 520.07 685.63 508.77 688.54 497.73 690.45 486.97 691.44 476.49 691.65 466.3 691.21 456.41 690.32 446.82 689.14 437.53 687.89 428.53 686.78 411.49 686.09 395.21 687.51 378.97 688.87 361.31 683.74 343.81 679.23 326.98 677.52 311.1 678.95 295.67 681.14 280.77 682.61 266.05 682.52 251.38 678.36 236.63 671.17 229.15 665.7 221.57 659.17 213.9 651.64 206.11 643.19 198.2 633.94 190.15 624.02 181.97 613.6 173.64 602.85 165.16 591.95 156.55 581.09 147.8 570.44 138.92 560.18 129.91 550.47 120.79 541.44 121.09 531.42 121.08 521.39 120.78 511.36 120.18 501.34 119.33 491.31 118.25 481.28 116.98 471.26 115.59 461.23 114.14 451.2 112.67 441.18 111.27 431.15 109.97 421.12 108.85 411.1 107.95 401.07 107.31 391.04 106.94 381.02 106.88 370.99 107.12 360.96 107.65 350.94 108.45 340.91 109.49 330.88 110.71 320.86 112.08 310.83 113.53 300.8 115 290.78 116.42 280.75 117.74 270.72 118.91 260.7 119.86 250.67 120.57 240.64 125.74 224.29 139.76 215.65 148.93 213.56 157.98 211.59 166.9 209.64 175.68 207.6 184.32 205.37 192.81 202.88 201.15 200.02 209.34 196.75 217.38 193 225.27 188.75 233.03 183.98 240.65 178.68 248.17 172.88 255.58 166.6 262.92 159.9 270.18 152.82 277.4 145.46 284.6 137.87 291.8 130.14 299.02 122.37 306.3 114.64 313.64 107.02 321.08 99.59 328.65 92.43 336.36 85.59 344.24 79.1 352.31 73.02 360.59 67.35 373.47 59.68 377.84 57.26" stroke-dasharray="4 7" transform="rotate(0, 400, 400)" opacity="1.00"></path><path d="M377.56 69.49Q385.99 74.79 394.65 80.49 403.56 86.56 412.72 92.99 422.14 99.74 431.81 106.77 441.73 114.01 451.9 121.41 462.3 128.9 472.93 136.4 483.76 143.82 494.79 151.11 505.98 158.18 517.32 164.96 528.78 171.39 540.34 177.42 551.95 183 563.6 188.12 575.25 192.74 586.87 196.88 598.41 200.54 609.86 203.75 621.18 206.56 632.32 209.02 643.27 211.21 653.99 213.19 664.45 215.06 674.63 216.91 684.49 218.83 694.03 220.91 706.86 229.38 707.55 245.15 703.33 254.78 698 264.4 691.76 274.03 684.87 283.65 677.59 293.27 670.2 302.9 663.01 312.52 656.28 322.15 650.29 331.77 645.27 341.4 641.42 351.02 638.88 360.64 637.77 370.27 638.11 379.89 639.9 389.52 643.07 399.14 647.5 408.77 653 418.39 659.37 428.01 666.35 437.64 673.67 447.26 681.04 456.89 688.17 466.51 694.79 476.14 700.63 485.76 705.47 495.39 709.1 505.01 711.4 514.64 712.27 524.26 711.68 533.88 701.8 542.23 691.59 551.26 681.09 560.86 670.32 570.89 659.31 581.21 648.08 591.66 636.68 602.08 625.13 612.31 613.47 622.2 601.74 631.58 589.96 640.32 578.18 648.3 566.43 655.43 554.74 661.62 543.14 666.84 531.65 671.06 520.32 674.3 509.16 676.59 498.19 678 487.43 678.64 476.91 678.61 466.63 678.07 456.6 677.17 446.84 676.08 437.34 674.97 428.11 674.04 410.56 673.71 393.76 675.37 377.64 676.78 361.23 671.79 345.41 667.14 330.12 665.1 315.57 666.11 301.33 667.99 287.39 669.54 273.51 669.89 259.51 666.85 245.33 661.15 238.1 656.63 230.76 651.12 223.3 644.65 215.72 637.28 208.01 629.08 200.16 620.17 192.18 610.67 184.05 600.72 175.79 590.46 167.39 580.06 158.86 569.69 150.21 559.49 141.45 549.63 132.59 540.24 132.71 530.54 132.53 520.84 132.06 511.14 131.3 501.44 130.3 491.74 129.09 482.03 127.72 472.33 126.25 462.63 124.72 452.93 123.2 443.23 121.76 433.53 120.44 423.83 119.3 414.13 118.39 404.43 117.73 394.73 117.36 385.03 117.29 375.33 117.52 365.62 118.04 355.92 118.84 346.22 119.88 336.52 121.12 326.82 122.51 317.12 124 307.42 125.53 297.72 127.04 288.02 128.47 278.32 129.76 268.62 130.86 258.92 131.74 249.22 137.06 233.62 150.79 225.81 159.72 224.01 168.55 222.21 177.26 220.32 185.85 218.26 202.53 213.08 218.79 206.74 226.66 202.77 234.39 198.3 241.97 193.34 249.41 187.89 256.73 181.97 263.93 175.63 271.03 168.92 278.03 161.89 284.96 154.62 291.83 147.18 298.66 139.64 305.48 132.09 312.3 124.6 319.15 117.25 326.05 110.1 333.01 103.22 340.08 96.65 347.26 90.44 354.57 84.6 362.05 79.17 373.64 71.81 377.56 69.49" stroke-dasharray="2 3" transform="rotate(4.04, 400, 400)" opacity="0.96"></path><path d="M378.73 81.72Q387.37 86.82 396.23 92.29 405.32 98.13 414.64 104.31 424.18 110.8 433.93 117.56 443.89 124.54 454.05 131.68 464.39 138.93 474.9 146.21 485.56 153.45 496.34 160.58 507.24 167.55 518.22 174.27 529.26 180.69 540.33 186.75 551.41 192.42 562.47 197.66 573.47 202.44 584.39 206.76 595.21 210.62 605.88 214.03 616.39 217.02 626.71 219.64 636.8 221.93 646.66 223.96 656.25 225.79 665.56 227.52 683.09 231.02 699.64 234.94 697.35 244.24 693.85 253.53 689.28 262.82 683.78 272.11 677.57 281.41 670.87 290.7 663.92 299.99 656.98 309.29 650.28 318.58 644.09 327.87 638.61 337.16 634.05 346.46 630.58 355.75 628.31 365.04 627.34 374.34 627.7 383.63 629.36 392.92 632.28 402.21 636.35 411.51 641.42 420.8 647.31 430.09 653.8 439.38 660.66 448.68 667.64 457.97 674.48 467.26 680.95 476.55 686.81 485.85 691.84 495.14 695.86 504.43 698.73 513.72 700.34 523.02 700.63 532.31 691.59 541.07 682.24 550.31 672.6 559.93 662.68 569.78 652.5 579.74 642.1 589.67 631.5 599.41 620.73 608.84 609.81 617.82 598.77 626.22 587.65 633.95 576.48 640.92 565.28 647.05 554.08 652.3 542.92 656.65 531.81 660.1 520.79 662.67 509.88 664.42 499.11 665.41 488.49 665.75 478.04 665.55 467.78 664.94 457.73 664.06 447.89 663.07 438.28 662.12 428.9 661.36 419.75 660.96 410.84 661.05 393.84 663.67 377.51 668.79 362.54 660.32 348.08 654.68 334.31 653.06 320.82 653.2 307.64 654.89 294.51 656.6 281.28 656.84 267.9 655.4 254.1 650.22 239.99 642.43 232.72 636.98 225.32 630.66 217.79 623.53 210.13 615.67 202.33 607.16 194.4 598.1 186.33 588.64 178.14 578.89 169.84 569 161.42 559.1 152.9 549.34 144.29 539.85 144.23 530.47 143.86 521.09 143.21 511.71 142.3 502.33 141.16 492.95 139.84 483.56 138.37 474.18 136.82 464.8 135.24 455.42 133.69 446.04 132.22 436.66 130.88 427.28 129.73 417.9 128.81 408.52 128.15 399.14 127.77 389.76 127.69 380.38 127.91 371 128.43 361.62 129.21 352.24 130.25 342.86 131.49 333.48 132.89 324.1 134.41 314.72 135.98 305.34 137.55 295.96 139.07 286.58 140.48 277.2 141.72 267.82 142.76 258.44 148.23 243.5 161.68 236.31 170.37 234.65 178.98 232.9 195.8 228.63 212.27 223.43 228.06 216.18 243.42 207.55 250.86 202.41 258.15 196.83 265.31 190.83 272.34 184.46 279.24 177.76 286.04 170.81 292.74 163.66 299.36 156.39 305.9 149.06 312.4 141.75 318.86 134.53 325.3 127.45 331.75 120.59 338.22 114 344.74 107.71 351.32 101.76 371.78 86.45 378.73 81.72" stroke-dasharray="8 5" transform="rotate(8.08, 400, 400)" opacity="0.92"></path><path d="M381.25 93.96Q390.04 98.86 399.03 104.11 408.21 109.7 417.57 115.63 427.12 121.85 436.84 128.33 446.71 135.04 456.73 141.92 466.88 148.91 477.15 155.96 487.5 162.99 497.93 169.96 508.41 176.79 518.92 183.43 529.43 189.81 539.93 195.88 550.38 201.61 560.77 206.95 571.06 211.88 581.23 216.37 591.27 220.43 601.14 224.05 610.82 227.25 620.3 230.06 629.55 232.52 638.55 234.67 655.63 238.21 671.84 241.41 681.61 248.32 679.86 262.61 675.04 271.58 669.48 280.54 663.37 289.51 656.92 298.48 650.34 307.44 643.85 316.41 637.66 325.38 631.98 334.35 627 343.31 622.89 352.28 619.77 361.25 617.76 370.21 616.92 379.18 617.28 388.15 618.83 397.11 621.51 406.08 625.24 415.05 629.89 424.01 635.31 432.98 641.32 441.95 647.72 450.91 654.29 459.88 660.82 468.85 667.08 477.81 672.88 486.78 678.02 495.75 682.33 504.71 685.66 513.68 687.91 522.65 688.99 531.61 680.76 540.53 672.23 549.75 663.41 559.15 654.32 568.63 644.99 578.05 635.42 587.29 625.63 596.24 615.66 604.78 605.51 612.8 595.22 620.21 584.82 626.93 574.31 632.91 563.74 638.1 553.13 642.47 542.49 646.02 531.87 648.77 521.27 650.76 510.73 652.04 500.27 652.68 489.91 652.79 479.66 652.46 469.55 651.82 459.59 650.99 449.8 650.11 440.18 649.31 430.76 648.73 421.53 648.51 412.5 648.76 395.17 651.51 378.46 656.55 365.01 648.33 351.93 642.69 339.3 640.76 326.83 640.51 314.44 641.88 301.99 643.44 289.3 644 276.37 643.22 262.95 639.31 249.18 633.11 242.08 628.61 234.84 623.31 227.48 617.22 219.99 610.41 212.36 602.92 204.62 594.85 196.75 586.28 188.77 577.33 180.68 568.09 172.49 558.71 164.22 549.28 155.86 539.95 155.59 530.89 155.04 521.83 154.22 512.77 153.16 503.71 151.89 494.65 150.46 485.59 148.91 476.53 147.3 467.46 145.68 458.4 144.11 449.34 142.62 440.28 141.29 431.22 140.14 422.16 139.22 413.1 138.56 404.04 138.18 394.98 138.09 385.92 138.3 376.86 138.79 367.8 139.56 358.74 140.58 349.68 141.8 340.62 143.2 331.56 144.73 322.5 146.33 313.44 147.95 304.38 149.54 295.32 151.05 286.26 152.42 277.19 153.61 268.13 159.22 253.79 172.39 246.99 189.17 243.41 205.69 239.1 221.67 233.06 237.29 225.76 244.86 221.34 252.3 216.48 259.61 211.19 266.77 205.5 273.8 199.45 280.69 193.08 287.45 186.44 294.1 179.6 300.62 172.6 307.05 165.52 313.38 158.42 319.63 151.37 325.81 144.42 331.94 137.64 344.12 124.92 356.3 113.09 374.96 98.47 381.25 93.96" stroke-dasharray="3 10" transform="rotate(12.12, 400, 400)" opacity="0.89"></path><path d="M384.98 106.19Q402.82 115.91 421.27 126.93 440.26 139.09 459.68 152.11 479.4 165.63 499.29 179.22 519.19 192.42 538.93 204.79 558.35 215.97 577.28 225.67 595.57 233.75 613.07 240.21 629.67 245.2 645.28 249.03 659.82 252.1 673.27 254.94 665.63 272.22 655.13 289.51 643.05 306.8 630.84 324.09 619.98 341.37 611.77 358.66 607.22 375.95 606.87 393.24 610.75 410.52 618.42 427.81 628.92 445.1 641.01 462.39 653.22 479.67 664.07 496.96 672.25 514.25 676.78 531.53 661.55 549.32 645.26 567.22 627.98 584.39 609.84 600.04 590.98 613.5 571.54 624.29 551.7 632.16 531.62 637.13 511.48 639.49 491.45 639.78 471.68 638.73 452.31 637.21 433.45 636.17 415.21 636.5 397.64 639.02 380.8 644.32 368.61 635.97 356.73 630.74 345.03 628.26 333.37 627.91 321.63 628.9 309.7 630.32 297.46 631.24 284.85 630.81 271.8 628.31 258.26 623.2 244.23 615.22 229.69 604.35 214.68 590.85 199.23 575.2 183.41 558.07 167.29 540.26 166.07 522.78 163.89 505.3 160.99 487.83 157.72 470.35 154.49 452.88 151.68 435.4 149.63 417.92 148.59 400.45 148.69 382.97 149.91 365.49 152.1 348.02 155 330.54 158.27 313.07 161.5 295.59 164.3 278.11 166.35 260.63 182.9 257.67 199.24 253.96 215.29 249.08 230.97 242.72 246.21 234.72 260.96 225.07 275.19 213.9 288.89 201.5 302.06 188.24 314.75 174.57 326.99 160.94 338.88 147.8 350.51 135.53 361.98 124.41 379.21 110.4 384.98 106.19" stroke-dasharray="5 2" transform="rotate(16.16, 400, 400)" opacity="0.85"></path><path d="M389.68 118.42Q407.34 127.7 425.44 138.22 443.9 149.82 462.59 162.27 481.4 175.25 500.2 188.38 518.85 201.26 537.2 213.48 555.12 224.7 572.47 234.63 589.14 243.08 605.02 250 620.04 255.46 634.12 259.64 647.25 262.87 659.41 265.55 651.2 282.19 640.77 298.83 629.26 315.47 617.94 332.1 608.06 348.74 600.71 365.38 596.69 382.02 596.45 398.65 600.01 415.29 606.99 431.93 616.61 448.56 627.82 465.2 639.37 481.84 650 498.47 658.54 515.11 664.05 531.75 650.25 548.75 635.48 565.35 619.79 580.83 603.25 594.57 585.97 606.09 568.05 615.06 549.64 621.39 530.88 625.2 511.9 626.81 492.86 626.75 473.9 625.68 455.15 624.39 436.73 623.67 418.74 624.29 401.26 626.93 384.36 632.1 373.26 624.05 362.29 618.83 351.34 616.12 340.28 615.41 329.02 616.03 317.47 617.24 305.55 618.22 293.22 618.22 280.42 616.56 267.15 612.73 253.39 606.4 239.17 597.46 224.53 586 209.5 572.33 194.14 556.94 178.53 540.43 176.94 523.62 174.47 506.8 171.4 489.98 168.07 473.16 164.83 456.35 162.05 439.53 160.04 422.71 159.01 405.89 159.08 389.07 160.24 372.26 162.36 355.44 165.22 338.62 168.48 321.8 171.81 304.98 174.82 288.16 177.19 271.34 193.18 268.19 209.02 264.06 224.62 258.64 239.91 251.73 254.82 243.27 269.3 233.3 283.3 222.02 296.8 209.72 309.8 196.76 322.29 183.53 334.31 170.47 345.91 157.94 357.16 146.28 368.13 135.73 384.31 122.43 389.68 118.42" stroke-dasharray="10 9" transform="rotate(20.200000000000003, 400, 400)" opacity="0.81"></path><path d="M395.03 130.65Q412.27 139.5 429.77 149.5 447.45 160.53 465.21 172.39 482.91 184.8 500.46 197.44 517.73 209.95 534.61 221.96 550.98 233.15 566.76 243.24 581.84 252.02 596.17 259.39 609.68 265.35 622.36 270 634.18 273.55 645.18 276.33 636.63 292.3 626.43 308.28 615.58 324.25 605.17 340.23 596.24 356.21 589.69 372.18 586.17 388.16 586.04 404.13 589.29 420.11 595.62 436.08 604.38 452.06 614.71 468.03 625.56 484.01 635.86 499.98 644.57 515.96 650.82 531.93 638.36 547.79 625.03 562.82 610.85 576.47 595.86 588.29 580.14 597.94 563.77 605.24 546.84 610.2 529.49 613.01 511.81 614.01 493.93 613.7 475.98 612.69 458.06 611.63 440.31 611.22 422.81 612.11 405.66 614.85 388.93 619.87 378.67 612.14 368.38 606.95 357.97 604.04 347.35 602.99 336.43 603.26 325.16 604.21 313.48 605.16 301.37 605.45 288.79 604.48 275.77 601.74 262.29 596.88 248.4 589.71 234.12 580.22 219.52 568.56 204.65 555.06 189.57 540.17 187.63 524.03 184.92 507.89 181.72 491.75 178.34 475.61 175.13 459.47 172.4 443.33 170.44 427.19 169.42 411.05 169.47 394.91 170.56 378.77 172.6 362.63 175.37 346.49 178.61 330.35 181.99 314.21 185.16 298.07 187.82 281.93 203.23 278.38 218.53 273.71 233.66 267.71 248.53 260.26 263.09 251.39 277.28 241.19 291.05 229.89 304.36 217.76 317.19 205.16 329.54 192.44 341.41 179.96 352.83 168.07 363.84 157.04 374.49 147.06 389.95 134.45 395.03 130.65" stroke-dasharray="1 8" transform="rotate(24.24, 400, 400)" opacity="0.77"></path><path d="M400.71 142.87Q417.27 151.29 433.94 160.78 450.64 171.24 467.26 182.49 483.71 194.31 499.89 206.42 515.71 218.5 531.07 230.23 545.9 241.32 560.13 251.49 573.69 260.54 586.54 268.32 598.66 274.77 610.04 279.95 620.69 283.97 630.64 287.04 621.97 302.34 612.14 317.63 602.01 332.93 592.52 348.23 584.52 363.52 578.73 378.82 575.67 394.12 575.62 409.41 578.58 424.71 584.3 440.01 592.24 455.3 601.69 470.6 611.81 485.89 621.67 501.19 630.38 516.49 637.17 531.78 625.94 546.18 613.93 559.47 601.17 571.25 587.66 581.18 573.46 589.07 558.62 594.86 543.21 598.63 527.31 600.61 511.02 601.14 494.43 600.67 477.64 599.75 460.76 598.95 443.89 598.84 427.11 599.96 410.52 602.78 394.21 607.64 384.55 600.24 374.74 595.1 364.7 592.02 354.37 590.67 343.68 590.59 332.61 591.26 321.11 592.12 309.19 592.58 296.83 592.12 284.04 590.28 270.86 586.69 257.31 581.12 243.43 573.47 229.28 563.79 214.92 552.26 200.39 539.18 198.13 523.74 195.22 508.3 191.92 492.87 188.55 477.43 185.39 461.99 182.74 446.55 180.83 431.12 179.84 415.68 179.86 400.24 180.88 384.8 182.81 369.36 185.48 353.92 188.65 338.49 192.03 323.05 195.32 307.61 198.21 292.17 213.02 288.08 227.76 282.8 242.37 276.21 256.8 268.28 270.97 259.07 284.83 248.74 298.34 237.5 311.45 225.63 324.12 213.46 336.35 201.29 348.11 189.44 359.42 178.19 370.3 167.79 380.77 158.38 395.8 146.47 400.71 142.87" stroke-dasharray="8 5" transform="rotate(28.28, 400, 400)" opacity="0.73"></path><path d="M406.33 155.1Q422 163.08 437.63 172.05 453.17 181.93 468.52 192.56 483.6 203.77 498.35 215.31 512.68 226.91 526.54 238.3 539.86 249.21 552.6 259.38 564.72 268.61 576.21 276.73 587.05 283.66 597.26 289.38 606.85 293.94 615.87 297.48 607.28 312.07 597.93 326.67 588.59 341.26 580.01 355.86 572.89 370.45 567.81 385.05 565.18 399.64 565.2 414.23 567.89 428.83 573.02 443.42 580.18 458.02 588.78 472.61 598.13 487.21 607.47 501.8 616.04 516.4 623.14 531 613.02 543.73 602.25 555.19 590.8 565.09 578.69 573.23 565.94 579.52 552.58 583.98 538.66 586.73 524.24 588.03 509.38 588.21 494.17 587.68 478.67 586.9 462.97 586.35 447.16 586.53 431.32 587.86 415.53 590.72 399.85 595.41 390.59 588.35 381.08 583.29 371.27 580.08 361.12 578.45 350.59 578.04 339.66 578.41 328.32 579.11 316.57 579.65 304.43 579.56 291.91 578.42 279.04 575.9 265.87 571.73 252.42 565.76 238.76 557.95 224.93 548.37 210.98 537.21 208.44 522.5 205.37 507.8 202.03 493.09 198.69 478.38 195.61 463.67 193.05 448.96 191.22 434.25 190.25 419.54 190.24 404.83 191.19 390.13 193 375.42 195.55 360.71 198.62 346 201.96 331.29 205.31 316.58 208.38 301.88 222.55 297.16 236.69 291.24 250.75 284.1 264.68 275.76 278.42 266.31 291.92 255.94 305.13 244.87 317.99 233.35 330.49 221.66 342.58 210.08 354.25 198.89 365.49 188.31 376.3 178.54 386.69 169.71 401.51 158.5 406.33 155.1" stroke-dasharray="5 1" transform="rotate(32.32, 400, 400)" opacity="0.70"></path><path d="M411.56 167.34Q426.13 174.88 440.57 183.33 454.82 192.61 468.8 202.63 482.46 213.2 495.75 224.14 508.6 235.22 520.99 246.2 532.86 256.84 544.2 266.91 555 276.23 565.23 284.61 574.92 291.96 584.08 298.2 592.74 303.33 600.94 307.43 592.59 321.3 583.84 335.17 575.31 349.04 567.63 362.9 561.36 376.77 556.94 390.64 554.69 404.51 554.79 418.37 557.22 432.24 561.8 446.11 568.21 459.98 575.98 473.85 584.54 487.71 593.29 501.58 601.58 515.45 608.81 529.32 599.69 540.27 590.03 549.88 579.79 557.98 568.97 564.46 557.58 569.32 545.64 572.62 533.17 574.54 520.21 575.32 506.8 575.26 493.01 574.73 478.87 574.12 464.47 573.83 449.87 574.26 435.13 575.77 420.32 578.66 405.52 583.17 396.48 576.45 387.13 571.5 377.45 568.19 367.41 566.32 356.99 565.59 346.18 565.67 335 566.17 323.45 566.68 311.55 566.82 299.32 566.22 286.81 564.56 274.04 561.57 261.07 557.09 247.92 551 234.66 543.31 221.33 534.08 218.56 520.13 215.39 506.18 212.05 492.22 208.77 478.27 205.8 464.32 203.35 450.37 201.6 436.42 200.67 422.47 200.63 408.52 201.49 394.57 203.18 380.62 205.58 366.67 208.52 352.72 211.78 338.77 215.12 324.82 218.32 310.87 231.81 305.48 245.32 298.97 258.79 291.35 272.18 282.7 285.44 273.14 298.51 262.84 311.36 252.03 323.94 240.94 336.21 229.8 348.14 218.86 359.7 208.34 370.86 198.43 381.63 189.3 392 181.04 406.76 170.53 411.56 167.34" stroke-dasharray="9 8" transform="rotate(36.36, 400, 400)" opacity="0.66"></path><path d="M416.04 179.57Q429.38 186.66 442.51 194.59 455.39 203.29 467.97 212.67 480.2 222.59 492.04 232.9 503.47 243.41 514.45 253.91 524.97 264.21 535.02 274.1 544.6 283.4 553.71 291.94 562.36 299.61 570.59 306.31 578.43 312.01 585.91 316.72 577.96 329.83 569.88 342.94 562.19 356.06 555.39 369.17 549.91 382.29 546.11 395.4 544.22 408.51 544.37 421.63 546.56 434.74 550.63 447.86 556.33 460.97 563.29 474.08 571.07 487.2 579.16 500.31 587.06 513.43 594.24 526.54 586.02 535.67 577.35 543.49 568.21 549.91 558.58 554.91 548.45 558.53 537.83 560.87 526.74 562.13 515.19 562.52 503.2 562.32 490.83 561.85 478.09 561.43 465.05 561.4 451.75 562.07 438.24 563.73 424.58 566.63 410.82 570.94 401.88 564.57 392.62 559.75 383.01 556.38 373.04 554.3 362.72 553.29 352.06 553.06 341.05 553.32 329.73 553.74 318.12 554 306.24 553.76 294.13 552.76 281.82 550.75 269.36 547.53 256.78 542.97 244.12 537 231.43 529.64 228.5 516.47 225.28 503.31 221.98 490.14 218.8 476.98 215.96 463.81 213.64 450.64 211.97 437.48 211.08 424.31 211.02 411.15 211.79 397.98 213.34 384.82 215.58 371.65 218.35 358.49 221.49 345.32 224.79 332.16 228.03 318.99 240.82 312.97 253.66 305.94 266.49 297.95 279.29 289.11 292 279.55 304.6 269.45 317.03 259 329.25 248.4 341.23 237.87 352.94 227.6 364.34 217.78 375.4 208.56 386.11 200.06 396.46 192.38 411.24 182.56 416.04 179.57" stroke-dasharray="7 3" transform="rotate(40.400000000000006, 400, 400)" opacity="0.62"></path><path d="M419.49 191.8Q431.51 198.45 443.28 205.85 454.76 213.96 465.94 222.7 476.76 231.96 487.22 241.61 497.3 251.51 506.98 261.48 516.26 271.36 525.14 280.96 533.62 290.13 541.73 298.72 549.48 306.6 556.89 313.68 564.01 319.87 570.88 325.17 563.44 337.5 556.09 349.83 549.25 362.17 543.29 374.5 538.56 386.84 535.32 399.17 533.76 411.5 533.96 423.84 535.91 436.17 539.5 448.51 544.54 460.84 550.73 473.17 557.72 485.51 565.12 497.84 572.52 510.18 579.49 522.51 572.07 529.87 564.29 536.01 556.13 540.93 547.57 544.63 538.6 547.21 529.2 548.79 519.39 549.53 509.17 549.66 498.56 549.42 487.57 549.06 476.22 548.85 464.56 549.06 452.61 549.94 440.41 551.73 428 554.6 415.43 558.71 406.53 552.7 397.3 548.03 387.75 544.63 377.87 542.38 367.68 541.1 357.19 540.59 346.42 540.6 335.38 540.86 324.11 541.12 312.63 541.12 300.98 540.6 289.19 539.33 277.29 537.15 265.31 533.89 253.3 529.47 241.28 523.82 238.25 511.47 235.04 499.11 231.82 486.76 228.78 474.4 226.1 462.05 223.91 449.69 222.35 437.34 221.5 424.99 221.41 412.63 222.09 400.28 223.5 387.92 225.55 375.57 228.14 363.21 231.12 350.86 234.31 338.5 237.54 326.15 249.59 319.58 261.71 312.14 273.86 303.92 286.01 295.03 298.13 285.61 310.18 275.81 322.11 265.81 333.91 255.79 345.53 245.91 356.94 236.34 368.1 227.22 379 218.69 389.61 210.83 399.9 203.72 414.67 194.59 419.49 191.8" stroke-dasharray="8 5" transform="rotate(44.44, 400, 400)" opacity="0.58"></path><path d="M421.69 204.03Q432.35 210.23 442.75 217.11 452.87 224.63 462.69 232.72 472.18 241.31 481.35 250.29 490.18 259.54 498.67 268.92 506.83 278.3 514.67 287.53 522.19 296.46 529.41 304.97 536.37 312.94 543.07 320.26 549.57 326.85 555.89 332.66 549.07 344.19 542.49 355.72 536.48 367.25 531.33 378.78 527.3 390.31 524.58 401.84 523.31 413.37 523.54 424.9 525.28 436.43 528.43 447.96 532.84 459.49 538.28 471.02 544.5 482.55 551.19 494.08 557.97 514.22 550.94 527.48 535.88 533.27 519.83 536.43 511.2 536.82 502.21 536.81 492.88 536.58 483.21 536.36 473.21 536.37 462.9 536.81 452.3 537.88 441.44 539.75 430.35 542.58 419.05 546.48 410.17 540.83 400.99 536.34 391.53 532.95 381.78 530.56 371.78 529.06 361.53 528.27 351.05 528.01 340.37 528.08 329.51 528.27 318.5 528.36 307.37 528.15 296.15 527.44 284.86 526.06 273.54 523.87 262.21 520.75 250.91 516.63 247.84 505.11 244.69 493.59 241.6 482.06 238.72 470.54 236.21 459.02 234.17 447.5 232.72 435.97 231.91 424.45 231.8 412.93 232.39 401.41 233.65 389.89 235.51 378.36 237.89 366.84 240.67 355.32 243.71 343.8 246.86 332.28 258.14 325.28 269.51 317.59 280.93 309.29 292.38 300.5 303.84 291.34 315.27 281.96 326.64 272.5 337.93 263.11 349.1 253.92 360.12 245.08 370.96 236.69 381.61 228.84 392.02 221.62 402.18 215.06 416.88 206.62 421.69 204.03" stroke-dasharray="4 8" transform="rotate(48.48, 400, 400)" opacity="0.54"></path><path d="M422.49 216.26Q431.82 222.02 440.9 228.37 449.72 235.3 458.26 242.74 466.52 250.65 474.51 258.94 482.21 267.5 489.65 276.25 496.81 285.06 503.73 293.82 510.41 302.42 516.87 310.72 523.13 318.63 529.23 326.06 535.04 341.37 529.1 360.53 523.91 371.24 519.52 381.94 516.13 392.65 513.88 403.35 512.86 414.05 513.13 424.76 514.66 435.46 517.4 446.17 521.22 456.87 525.97 467.57 531.44 478.28 537.4 488.98 543.64 507.15 537.38 517.97 523.98 521.91 509.8 523.9 494.23 523.95 477.77 523.79 469.04 524.01 460.03 524.65 450.75 525.88 441.21 527.81 431.44 530.58 421.44 534.25 412.62 528.97 403.55 524.68 394.24 521.33 384.7 518.85 374.96 517.16 365.03 516.12 354.93 515.6 344.69 515.45 334.32 515.5 323.85 515.59 313.31 515.53 302.72 515.19 292.1 514.4 281.48 513.03 270.87 510.96 260.31 508.12 257.28 497.45 254.24 486.78 251.31 476.1 248.63 465.43 246.3 454.76 244.42 444.08 243.08 433.41 242.33 422.74 242.2 412.07 242.7 401.39 243.8 390.72 245.46 380.05 247.62 369.38 250.17 358.7 253.01 348.03 256.02 337.36 266.5 330.11 277.08 322.33 287.73 314.11 298.43 305.56 309.17 296.8 319.92 287.93 330.65 279.09 341.34 270.39 351.97 261.94 362.51 253.83 372.93 246.17 383.21 239.01 393.33 232.41 403.26 226.42 417.74 218.65 422.49 216.26" stroke-dasharray="1 8" transform="rotate(52.52, 400, 400)" opacity="0.51"></path><path d="M421.86 228.49Q429.92 233.8 437.76 239.63 445.37 245.97 452.75 252.77 459.9 259.99 466.83 267.57 473.54 275.44 480.04 283.51 486.35 291.69 492.46 299.9 498.41 308.04 504.21 316.02 509.88 323.74 515.44 331.11 520.93 346.23 515.94 364.26 511.52 374.12 507.84 383.98 505.04 393.84 503.21 403.7 502.43 413.57 502.71 423.43 504.06 433.29 506.42 443.15 509.7 453.01 513.79 462.88 518.53 472.74 523.77 482.6 523.6 504.05 511.85 510.32 499.13 511.13 485.76 511.24 471.22 511.49 455.97 512.59 439.55 516.26 422.46 522.03 413.78 517.12 404.9 513.04 395.84 509.76 386.61 507.24 377.23 505.39 367.72 504.14 358.09 503.38 348.37 502.99 338.57 502.86 328.72 502.85 318.83 502.84 308.92 502.69 299.02 502.29 289.14 501.51 272.94 494.43 263.7 478.8 260.98 468.99 258.51 459.18 256.38 449.37 254.67 439.56 253.44 429.75 252.74 419.93 252.6 410.12 253 400.31 253.96 390.5 255.41 380.69 257.33 370.87 259.63 361.06 262.23 351.25 265.04 341.44 274.7 334.12 284.45 326.43 294.3 318.46 304.21 310.3 314.17 302.05 324.17 293.8 334.19 285.64 344.21 277.67 354.2 269.97 364.16 262.62 374.05 255.68 383.86 249.21 393.56 243.23 403.14 237.78 417.22 230.68 421.86 228.49" stroke-dasharray="4 8" transform="rotate(56.56, 400, 400)" opacity="0.47"></path><path d="M419.81 240.72Q433.42 250.91 446.3 262.82 458.48 276.21 470.02 290.71 481.01 305.81 491.56 320.93 501.8 335.49 511.88 348.91 503.01 366.92 496.31 384.94 492.59 402.95 492.3 420.96 495.48 438.98 501.73 456.99 510.32 475 520.19 493.01 510 496.43 499.4 498.07 488.27 498.55 476.5 498.61 464.03 499.04 450.8 500.61 436.8 504.02 422.04 509.79 405.04 501.43 387.53 495.72 369.62 492.33 351.45 490.74 333.14 490.24 314.8 490.09 296.57 489.48 278.54 487.71 273.1 469.82 268.36 451.94 264.91 434.05 263.16 416.16 263.32 398.28 265.37 380.39 269.07 362.5 273.96 344.61 291.68 330.01 309.76 314.8 328.1 299.6 346.61 284.98 365.16 271.46 383.63 259.44 401.89 249.17 419.81 240.72 419.81 240.72 419.81 240.72" stroke-dasharray="5 2" transform="rotate(60.599999999999994, 400, 400)" opacity="0.43"></path><path d="M416.5 252.95Q428.08 262.17 439.12 272.86 449.66 284.86 459.77 297.89 469.52 311.59 479.03 325.52 488.39 339.25 497.72 352.32 490.34 368.61 484.91 384.9 482 401.2 481.88 417.49 484.58 433.78 489.82 450.07 497.07 466.37 505.61 482.66 496.36 484.71 486.86 485.62 477.02 485.91 466.76 486.14 455.99 486.9 444.66 488.75 432.74 492.18 420.2 497.56 404.03 489.85 387.54 484.31 370.84 480.73 354.02 478.73 337.18 477.84 320.41 477.51 303.8 477.16 287.43 476.22 282.44 460.07 278.2 443.92 275.15 427.76 273.57 411.61 273.64 395.46 275.34 379.31 278.51 363.15 282.82 347 298.82 333.16 315.16 319.14 331.8 305.39 348.65 292.34 365.64 280.35 382.68 269.7 399.67 260.55 416.5 252.95 416.5 252.95 416.5 252.95" stroke-dasharray="1 5" transform="rotate(64.64, 400, 400)" opacity="0.39"></path><path d="M412.13 265.18Q421.96 273.44 431.42 282.93 440.56 293.54 449.44 305.08 458.14 317.29 466.73 329.89 475.28 342.53 483.9 354.88 477.92 369.45 473.66 384.02 471.45 398.59 471.47 413.17 473.73 427.74 478.03 442.31 483.45 464.74 474.35 473.1 465.65 473.38 456.69 473.84 447.39 474.91 437.72 476.97 427.62 480.36 417.07 485.33 401.99 478.29 386.76 473 371.46 469.31 356.16 466.98 340.92 465.7 325.81 465.08 310.89 464.73 296.21 464.21 291.75 449.78 288.04 435.35 285.38 420.92 283.99 406.5 283.97 392.07 285.34 377.64 287.97 363.21 291.66 348.79 305.91 336.05 320.48 323.42 335.34 311.23 350.45 299.78 365.74 289.31 381.17 280 404.39 268.56 412.13 265.18" stroke-dasharray="8 5" transform="rotate(68.68, 400, 400)" opacity="0.35"></path><path d="M406.98 277.41Q415.32 284.72 423.45 293.03 431.41 302.26 439.24 312.3 447 322.99 454.75 334.12 462.54 345.46 470.44 356.78 465.77 369.64 462.53 382.5 460.92 395.35 461.05 408.21 462.91 421.07 466.38 433.93 462.35 457.28 446.46 461.77 438.44 463.1 430.19 465.3 421.67 468.58 412.84 473.1 399.12 466.76 385.37 461.79 371.64 458.09 357.99 455.52 344.45 453.88 331.07 452.92 317.88 452.38 304.92 451.96 301.05 439.24 297.88 426.52 295.62 413.79 294.4 401.07 294.32 388.35 295.37 375.63 297.48 362.91 300.53 350.19 313.02 338.82 325.8 327.74 338.85 317.19 352.14 307.34 365.63 298.35 379.3 290.34 400.04 280.38 406.98 277.41" stroke-dasharray="6 4" transform="rotate(72.72, 400, 400)" opacity="0.32"></path><path d="M401.38 289.64Q408.48 296 415.48 303.15 422.41 311.04 429.31 319.6 436.22 328.74 443.18 338.31 450.22 348.19 457.38 358.22 453.89 369.38 451.54 380.54 450.43 391.7 450.64 402.86 452.14 414.02 454.87 425.19 450.36 445.54 436.26 449.93 422.25 454.14 407.78 460.87 395.64 455.25 383.55 450.67 371.53 447.06 359.63 444.36 347.86 442.43 336.25 441.14 324.83 440.31 313.61 439.76 310.36 428.72 307.73 417.68 305.85 406.64 304.82 395.6 304.68 384.55 305.44 373.51 307.06 362.47 309.47 351.44 320.21 341.63 331.2 332.22 342.42 323.32 353.85 315.05 365.49 307.5 377.31 300.74 395.33 292.21 401.38 289.64" stroke-dasharray="2 11" transform="rotate(76.76, 400, 400)" opacity="0.28"></path><path d="M395.69 301.87Q407.76 313.59 419.82 327.01 425.92 334.59 432.09 342.58 438.35 350.89 444.74 359.42 442.27 368.91 440.66 378.4 439.97 387.89 440.22 397.38 441.41 406.87 443.48 416.36 438.66 433.98 426.25 438.35 414.33 442.55 402.23 448.64 391.83 443.77 381.52 439.64 371.31 436.24 361.23 433.51 351.27 431.4 341.46 429.83 325.76 423.59 317.6 409.11 316.1 399.72 315.23 390.34 315.05 380.95 315.55 371.56 316.72 362.17 318.52 352.78 327.54 344.66 336.76 336.94 346.16 329.67 355.74 322.93 365.5 316.76 375.41 311.19 390.59 304.05 395.69 301.87" stroke-dasharray="8 7" transform="rotate(80.80000000000001, 400, 400)" opacity="0.24"></path><path d="M390.28 314.11Q400.52 323.51 410.91 334.54 421.54 347.02 432.52 360.64 429.91 376.33 429.81 392.02 432.22 407.7 436.92 423.39 426.66 424.73 416.59 427.07 406.58 430.84 396.53 436.41 379.53 428.7 362.93 422.99 346.77 419.07 331.11 416.6 327.5 401.07 325.65 385.54 325.73 370 327.73 354.47 342.56 342 357.94 331.01 373.86 321.69 390.28 314.11 390.28 314.11 390.28 314.11" stroke-dasharray="3 5" transform="rotate(84.84, 400, 400)" opacity="0.20"></path><path d="M385.49 326.34Q393.99 333.75 402.67 342.25 411.57 351.75 420.74 362.12 419.28 374.58 419.39 387.04 418.42 406.55 407.42 416.08 399.21 419.54 391.05 424.18 377.81 417.85 364.87 412.8 352.27 408.94 340.01 406.13 337.44 393.78 336.06 381.43 335.97 369.08 337.16 356.73 348.69 347.5 360.59 339.33 379.17 329.3 385.49 326.34" stroke-dasharray="7 10" transform="rotate(88.88, 400, 400)" opacity="0.16"></path><path d="M381.63 338.56Q388.34 344.04 395.19 350.14 402.2 356.85 409.39 364.12 408.75 373.4 408.98 382.68 407.73 397.51 398.87 405.39 384.52 407.71 367.2 402.94 352.73 393.46 346.48 378.22 350.75 361.26 363.8 347.89 377.12 340.73 381.63 338.56" stroke-dasharray="5 2" transform="rotate(92.92, 400, 400)" opacity="0.13"></path><path d="M378.95 350.79Q388.54 358.26 398.45 366.85 398.56 379.16 400.18 391.47 391.04 395.03 382.14 399.72 370.05 393.4 358.35 388.31 356.89 376.06 356.79 363.82 373.32 353.76 378.95 350.79" stroke-dasharray="2 6" transform="rotate(96.96, 400, 400)" opacity="0.09"></path></g></svg>