<svg id="visual" viewBox="0 0 900 675" width="900" height="675" xmlns="http://www.w3.org/2000/svg" xmlns:xlink="http://www.w3.org/1999/xlink" version="1.1"><rect x="0" y="0" width="900" height="675" fill="#17141d"></rect><path d="M0 332L6.5 346.8C13 361.7 26 391.3 39 400.8C52 410.3 65 399.7 78 394.2C91 388.7 104 388.3 117.2 387.8C130.3 387.3 143.7 386.7 156.8 390.5C170 394.3 183 402.7 196 402.8C209 403 222 395 235 387.5C248 380 261 373 274 369.8C287 366.7 300 367.3 313 369.2C326 371 339 374 352 382.5C365 391 378 405 391 413.2C404 421.3 417 423.7 430.2 409.2C443.3 394.7 456.7 363.3 469.8 355.7C483 348 496 364 509 376.8C522 389.7 535 399.3 548 390.5C561 381.7 574 354.3 587 344.3C600 334.3 613 341.7 626 346.5C639 351.3 652 353.7 665 363.3C678 373 691 390 704 397C717 404 730 401 743.2 401.5C756.3 402 769.7 406 782.8 398.2C796 390.3 809 370.7 822 363C835 355.3 848 359.7 861 357.8C874 356 887 348 893.5 344L900 340L900 676L893.5 676C887 676 874 676 861 676C848 676 835 676 822 676C809 676 796 676 782.8 676C769.7 676 756.3 676 743.2 676C730 676 717 676 704 676C691 676 678 676 665 676C652 676 639 676 626 676C613 676 600 676 587 676C574 676 561 676 548 676C535 676 522 676 509 676C496 676 483 676 469.8 676C456.7 676 443.3 676 430.2 676C417 676 404 676 391 676C378 676 365 676 352 676C339 676 326 676 313 676C300 676 287 676 274 676C261 676 248 676 235 676C222 676 209 676 196 676C183 676 170 676 156.8 676C143.7 676 130.3 676 117.2 676C104 676 91 676 78 676C65 676 52 676 39 676C26 676 13 676 6.5 676L0 676Z" fill="#fa7268"></path><path d="M0 460L6.5 451.3C13 442.7 26 425.3 39 424C52 422.7 65 437.3 78 440.7C91 444 104 436 117.2 429.8C130.3 423.7 143.7 419.3 156.8 428.2C170 437 183 459 196 456.8C209 454.7 222 428.3 235 415.7C248 403 261 404 274 414.8C287 425.7 300 446.3 313 454.7C326 463 339 459 352 448.5C365 438 378 421 391 414C404 407 417 410 430.2 417.3C443.3 424.7 456.7 436.3 469.8 447.5C483 458.7 496 469.3 509 475C522 480.7 535 481.3 548 476.3C561 471.3 574 460.7 587 447.8C600 435 613 420 626 419.2C639 418.3 652 431.7 665 440.8C678 450 691 455 704 449.3C717 443.7 730 427.3 743.2 430C756.3 432.7 769.7 454.3 782.8 463C796 471.7 809 467.3 822 459.7C835 452 848 441 861 438C874 435 887 440 893.5 442.5L900 445L900 676L893.5 676C887 676 874 676 861 676C848 676 835 676 822 676C809 676 796 676 782.8 676C769.7 676 756.3 676 743.2 676C730 676 717 676 704 676C691 676 678 676 665 676C652 676 639 676 626 676C613 676 600 676 587 676C574 676 561 676 548 676C535 676 522 676 509 676C496 676 483 676 469.8 676C456.7 676 443.3 676 430.2 676C417 676 404 676 391 676C378 676 365 676 352 676C339 676 326 676 313 676C300 676 287 676 274 676C261 676 248 676 235 676C222 676 209 676 196 676C183 676 170 676 156.8 676C143.7 676 130.3 676 117.2 676C104 676 91 676 78 676C65 676 52 676 39 676C26 676 13 676 6.5 676L0 676Z" fill="#eb5967"></path><path d="M0 486L6.5 497C13 508 26 530 39 538.5C52 547 65 542 78 542.7C91 543.3 104 549.7 117.2 552.2C130.3 554.7 143.7 553.3 156.8 552C170 550.7 183 549.3 196 537.2C209 525 222 502 235 499C248 496 261 513 274 513.2C287 513.3 300 496.7 313 493.2C326 489.7 339 499.3 352 511C365 522.7 378 536.3 391 531C404 525.7 417 501.3 430.2 492.8C443.3 484.3 456.7 491.7 469.8 503.3C483 515 496 531 509 538.7C522 546.3 535 545.7 548 543.8C561 542 574 539 587 531C600 523 613 510 626 513.5C639 517 652 537 665 534.3C678 531.7 691 506.3 704 495.5C717 484.7 730 488.3 743.2 496.3C756.3 504.3 769.7 516.7 782.8 527.8C796 539 809 549 822 546C835 543 848 527 861 518.8C874 510.7 887 510.3 893.5 510.2L900 510L900 676L893.5 676C887 676 874 676 861 676C848 676 835 676 822 676C809 676 796 676 782.8 676C769.7 676 756.3 676 743.2 676C730 676 717 676 704 676C691 676 678 676 665 676C652 676 639 676 626 676C613 676 600 676 587 676C574 676 561 676 548 676C535 676 522 676 509 676C496 676 483 676 469.8 676C456.7 676 443.3 676 430.2 676C417 676 404 676 391 676C378 676 365 676 352 676C339 676 326 676 313 676C300 676 287 676 274 676C261 676 248 676 235 676C222 676 209 676 196 676C183 676 170 676 156.8 676C143.7 676 130.3 676 117.2 676C104 676 91 676 78 676C65 676 52 676 39 676C26 676 13 676 6.5 676L0 676Z" fill="#da3f67"></path><path d="M0 560L6.5 570.5C13 581 26 602 39 605.3C52 608.7 65 594.3 78 587C91 579.7 104 579.3 117.2 576.5C130.3 573.7 143.7 568.3 156.8 574.2C170 580 183 597 196 607C209 617 222 620 235 614.2C248 608.3 261 593.7 274 595.2C287 596.7 300 614.3 313 610.5C326 606.7 339 581.3 352 569.8C365 558.3 378 560.7 391 561C404 561.3 417 559.7 430.2 566.7C443.3 573.7 456.7 589.3 469.8 592.7C483 596 496 587 509 585.8C522 584.7 535 591.3 548 600C561 608.7 574 619.3 587 617.5C600 615.7 613 601.3 626 598.8C639 596.3 652 605.7 665 610.3C678 615 691 615 704 610.7C717 606.3 730 597.7 743.2 596.2C756.3 594.7 769.7 600.3 782.8 602.5C796 604.7 809 603.3 822 606.2C835 609 848 616 861 617.7C874 619.3 887 615.7 893.5 613.8L900 612L900 676L893.5 676C887 676 874 676 861 676C848 676 835 676 822 676C809 676 796 676 782.8 676C769.7 676 756.3 676 743.2 676C730 676 717 676 704 676C691 676 678 676 665 676C652 676 639 676 626 676C613 676 600 676 587 676C574 676 561 676 548 676C535 676 522 676 509 676C496 676 483 676 469.8 676C456.7 676 443.3 676 430.2 676C417 676 404 676 391 676C378 676 365 676 352 676C339 676 326 676 313 676C300 676 287 676 274 676C261 676 248 676 235 676C222 676 209 676 196 676C183 676 170 676 156.8 676C143.7 676 130.3 676 117.2 676C104 676 91 676 78 676C65 676 52 676 39 676C26 676 13 676 6.5 676L0 676Z" fill="#c62368"></path></svg>