<svg id="visual" viewBox="0 0 3440 1440" width="3440" height="1440" xmlns="http://www.w3.org/2000/svg" xmlns:xlink="http://www.w3.org/1999/xlink" version="1.1"><rect x="0" y="0" width="3440" height="1440" fill="#17141d"></rect><path d="M0 1362L26 1354.8C52 1347.7 104 1333.3 156.2 1328.3C208.3 1323.3 260.7 1327.7 312.8 1329C365 1330.3 417 1328.7 469 1333.2C521 1337.7 573 1348.3 625.2 1356.7C677.3 1365 729.7 1371 781.8 1377.7C834 1384.3 886 1391.7 938.2 1397.3C990.3 1403 1042.7 1407 1094.8 1399.2C1147 1391.3 1199 1371.7 1251 1361.7C1303 1351.7 1355 1351.3 1407.2 1351.8C1459.3 1352.3 1511.7 1353.7 1563.8 1351.7C1616 1349.7 1668 1344.3 1720 1341.5C1772 1338.7 1824 1338.3 1876.2 1347.3C1928.3 1356.3 1980.7 1374.7 2032.8 1373.8C2085 1373 2137 1353 2189 1339.7C2241 1326.3 2293 1319.7 2345.2 1329C2397.3 1338.3 2449.7 1363.7 2501.8 1364.3C2554 1365 2606 1341 2658.2 1342.8C2710.3 1344.7 2762.7 1372.3 2814.8 1379.3C2867 1386.3 2919 1372.7 2971 1356.7C3023 1340.7 3075 1322.3 3127.2 1331.2C3179.3 1340 3231.7 1376 3283.8 1388.8C3336 1401.7 3388 1391.3 3414 1386.2L3440 1381L3440 1441L3414 1441C3388 1441 3336 1441 3283.8 1441C3231.7 1441 3179.3 1441 3127.2 1441C3075 1441 3023 1441 2971 1441C2919 1441 2867 1441 2814.8 1441C2762.7 1441 2710.3 1441 2658.2 1441C2606 1441 2554 1441 2501.8 1441C2449.7 1441 2397.3 1441 2345.2 1441C2293 1441 2241 1441 2189 1441C2137 1441 2085 1441 2032.8 1441C1980.7 1441 1928.3 1441 1876.2 1441C1824 1441 1772 1441 1720 1441C1668 1441 1616 1441 1563.8 1441C1511.7 1441 1459.3 1441 1407.2 1441C1355 1441 1303 1441 1251 1441C1199 1441 1147 1441 1094.8 1441C1042.7 1441 990.3 1441 938.2 1441C886 1441 834 1441 781.8 1441C729.7 1441 677.3 1441 625.2 1441C573 1441 521 1441 469 1441C417 1441 365 1441 312.8 1441C260.7 1441 208.3 1441 156.2 1441C104 1441 52 1441 26 1441L0 1441Z" fill="#fa7268"></path><path d="M0 1321L26 1329.5C52 1338 104 1355 156.2 1368.7C208.3 1382.3 260.7 1392.7 312.8 1393.2C365 1393.7 417 1384.3 469 1380.3C521 1376.3 573 1377.7 625.2 1371.2C677.3 1364.7 729.7 1350.3 781.8 1342.2C834 1334 886 1332 938.2 1336.8C990.3 1341.7 1042.7 1353.3 1094.8 1366.7C1147 1380 1199 1395 1251 1402.7C1303 1410.3 1355 1410.7 1407.2 1398.5C1459.3 1386.3 1511.7 1361.7 1563.8 1360.8C1616 1360 1668 1383 1720 1396.2C1772 1409.3 1824 1412.7 1876.2 1406C1928.3 1399.3 1980.7 1382.7 2032.8 1382.3C2085 1382 2137 1398 2189 1394C2241 1390 2293 1366 2345.2 1359.3C2397.3 1352.7 2449.7 1363.3 2501.8 1376C2554 1388.7 2606 1403.3 2658.2 1401.2C2710.3 1399 2762.7 1380 2814.8 1375.7C2867 1371.3 2919 1381.7 2971 1379.2C3023 1376.7 3075 1361.3 3127.2 1353.2C3179.3 1345 3231.7 1344 3283.8 1340.5C3336 1337 3388 1331 3414 1328L3440 1325L3440 1441L3414 1441C3388 1441 3336 1441 3283.8 1441C3231.7 1441 3179.3 1441 3127.2 1441C3075 1441 3023 1441 2971 1441C2919 1441 2867 1441 2814.8 1441C2762.7 1441 2710.3 1441 2658.2 1441C2606 1441 2554 1441 2501.8 1441C2449.7 1441 2397.3 1441 2345.2 1441C2293 1441 2241 1441 2189 1441C2137 1441 2085 1441 2032.8 1441C1980.7 1441 1928.3 1441 1876.2 1441C1824 1441 1772 1441 1720 1441C1668 1441 1616 1441 1563.8 1441C1511.7 1441 1459.3 1441 1407.2 1441C1355 1441 1303 1441 1251 1441C1199 1441 1147 1441 1094.8 1441C1042.7 1441 990.3 1441 938.2 1441C886 1441 834 1441 781.8 1441C729.7 1441 677.3 1441 625.2 1441C573 1441 521 1441 469 1441C417 1441 365 1441 312.8 1441C260.7 1441 208.3 1441 156.2 1441C104 1441 52 1441 26 1441L0 1441Z" fill="#ef5f67"></path><path d="M0 1345L26 1347.3C52 1349.7 104 1354.3 156.2 1354.7C208.3 1355 260.7 1351 312.8 1356.5C365 1362 417 1377 469 1386.3C521 1395.7 573 1399.3 625.2 1400.8C677.3 1402.3 729.7 1401.7 781.8 1404.3C834 1407 886 1413 938.2 1412.8C990.3 1412.7 1042.7 1406.3 1094.8 1398.2C1147 1390 1199 1380 1251 1378.5C1303 1377 1355 1384 1407.2 1381.8C1459.3 1379.7 1511.7 1368.3 1563.8 1364.3C1616 1360.3 1668 1363.7 1720 1366.2C1772 1368.7 1824 1370.3 1876.2 1374.2C1928.3 1378 1980.7 1384 2032.8 1392.8C2085 1401.7 2137 1413.3 2189 1415.2C2241 1417 2293 1409 2345.2 1402.7C2397.3 1396.3 2449.7 1391.7 2501.8 1389C2554 1386.3 2606 1385.7 2658.2 1390.7C2710.3 1395.7 2762.7 1406.3 2814.8 1403.2C2867 1400 2919 1383 2971 1373.2C3023 1363.3 3075 1360.7 3127.2 1360.5C3179.3 1360.3 3231.7 1362.7 3283.8 1366.5C3336 1370.3 3388 1375.7 3414 1378.3L3440 1381L3440 1441L3414 1441C3388 1441 3336 1441 3283.8 1441C3231.7 1441 3179.3 1441 3127.2 1441C3075 1441 3023 1441 2971 1441C2919 1441 2867 1441 2814.8 1441C2762.7 1441 2710.3 1441 2658.2 1441C2606 1441 2554 1441 2501.8 1441C2449.7 1441 2397.3 1441 2345.2 1441C2293 1441 2241 1441 2189 1441C2137 1441 2085 1441 2032.8 1441C1980.7 1441 1928.3 1441 1876.2 1441C1824 1441 1772 1441 1720 1441C1668 1441 1616 1441 1563.8 1441C1511.7 1441 1459.3 1441 1407.2 1441C1355 1441 1303 1441 1251 1441C1199 1441 1147 1441 1094.8 1441C1042.7 1441 990.3 1441 938.2 1441C886 1441 834 1441 781.8 1441C729.7 1441 677.3 1441 625.2 1441C573 1441 521 1441 469 1441C417 1441 365 1441 312.8 1441C260.7 1441 208.3 1441 156.2 1441C104 1441 52 1441 26 1441L0 1441Z" fill="#e34c67"></path><path d="M0 1392L26 1390C52 1388 104 1384 156.2 1382C208.3 1380 260.7 1380 312.8 1379.3C365 1378.7 417 1377.3 469 1380.2C521 1383 573 1390 625.2 1396.5C677.3 1403 729.7 1409 781.8 1411.5C834 1414 886 1413 938.2 1407.8C990.3 1402.7 1042.7 1393.3 1094.8 1391.8C1147 1390.3 1199 1396.7 1251 1394.8C1303 1393 1355 1383 1407.2 1377.3C1459.3 1371.7 1511.7 1370.3 1563.8 1372C1616 1373.7 1668 1378.3 1720 1384.5C1772 1390.7 1824 1398.3 1876.2 1400.5C1928.3 1402.7 1980.7 1399.3 2032.8 1394.7C2085 1390 2137 1384 2189 1380.2C2241 1376.3 2293 1374.7 2345.2 1376.2C2397.3 1377.7 2449.7 1382.3 2501.8 1382.8C2554 1383.3 2606 1379.7 2658.2 1384.5C2710.3 1389.3 2762.7 1402.7 2814.8 1409.2C2867 1415.7 2919 1415.3 2971 1408.3C3023 1401.3 3075 1387.7 3127.2 1386.8C3179.3 1386 3231.7 1398 3283.8 1405.8C3336 1413.7 3388 1417.3 3414 1419.2L3440 1421L3440 1441L3414 1441C3388 1441 3336 1441 3283.8 1441C3231.7 1441 3179.3 1441 3127.2 1441C3075 1441 3023 1441 2971 1441C2919 1441 2867 1441 2814.8 1441C2762.7 1441 2710.3 1441 2658.2 1441C2606 1441 2554 1441 2501.8 1441C2449.7 1441 2397.3 1441 2345.2 1441C2293 1441 2241 1441 2189 1441C2137 1441 2085 1441 2032.8 1441C1980.7 1441 1928.3 1441 1876.2 1441C1824 1441 1772 1441 1720 1441C1668 1441 1616 1441 1563.8 1441C1511.7 1441 1459.3 1441 1407.2 1441C1355 1441 1303 1441 1251 1441C1199 1441 1147 1441 1094.8 1441C1042.7 1441 990.3 1441 938.2 1441C886 1441 834 1441 781.8 1441C729.7 1441 677.3 1441 625.2 1441C573 1441 521 1441 469 1441C417 1441 365 1441 312.8 1441C260.7 1441 208.3 1441 156.2 1441C104 1441 52 1441 26 1441L0 1441Z" fill="#d53867"></path><path d="M0 1414L26 1418C52 1422 104 1430 156.2 1433.2C208.3 1436.3 260.7 1434.7 312.8 1430.5C365 1426.3 417 1419.7 469 1416.2C521 1412.7 573 1412.3 625.2 1411.3C677.3 1410.3 729.7 1408.7 781.8 1412.8C834 1417 886 1427 938.2 1428.7C990.3 1430.3 1042.7 1423.7 1094.8 1419.3C1147 1415 1199 1413 1251 1411.5C1303 1410 1355 1409 1407.2 1409.2C1459.3 1409.3 1511.7 1410.7 1563.8 1415.5C1616 1420.3 1668 1428.7 1720 1425.5C1772 1422.3 1824 1407.7 1876.2 1401.3C1928.3 1395 1980.7 1397 2032.8 1398.5C2085 1400 2137 1401 2189 1405.2C2241 1409.3 2293 1416.7 2345.2 1419C2397.3 1421.3 2449.7 1418.7 2501.8 1420.3C2554 1422 2606 1428 2658.2 1429.5C2710.3 1431 2762.7 1428 2814.8 1423.7C2867 1419.3 2919 1413.7 2971 1408.2C3023 1402.7 3075 1397.3 3127.2 1396.7C3179.3 1396 3231.7 1400 3283.8 1405.3C3336 1410.7 3388 1417.3 3414 1420.7L3440 1424L3440 1441L3414 1441C3388 1441 3336 1441 3283.8 1441C3231.7 1441 3179.3 1441 3127.2 1441C3075 1441 3023 1441 2971 1441C2919 1441 2867 1441 2814.8 1441C2762.7 1441 2710.3 1441 2658.2 1441C2606 1441 2554 1441 2501.8 1441C2449.7 1441 2397.3 1441 2345.2 1441C2293 1441 2241 1441 2189 1441C2137 1441 2085 1441 2032.8 1441C1980.7 1441 1928.3 1441 1876.2 1441C1824 1441 1772 1441 1720 1441C1668 1441 1616 1441 1563.8 1441C1511.7 1441 1459.3 1441 1407.2 1441C1355 1441 1303 1441 1251 1441C1199 1441 1147 1441 1094.8 1441C1042.7 1441 990.3 1441 938.2 1441C886 1441 834 1441 781.8 1441C729.7 1441 677.3 1441 625.2 1441C573 1441 521 1441 469 1441C417 1441 365 1441 312.8 1441C260.7 1441 208.3 1441 156.2 1441C104 1441 52 1441 26 1441L0 1441Z" fill="#c62368"></path></svg>