<svg id="visual" viewBox="0 0 1920 1080" width="1920" height="1080" xmlns="http://www.w3.org/2000/svg" xmlns:xlink="http://www.w3.org/1999/xlink" version="1.1"><rect x="0" y="0" width="1920" height="1080" fill="#17141d"></rect><path d="M0 972L13.8 975C27.7 978 55.3 984 83.2 988.5C111 993 139 996 166.8 1000.8C194.7 1005.7 222.3 1012.3 250.2 1011.3C278 1010.3 306 1001.7 333.8 994.2C361.7 986.7 389.3 980.3 417.2 980.3C445 980.3 473 986.7 500.8 990.3C528.7 994 556.3 995 584.2 998.2C612 1001.3 640 1006.7 667.8 1005C695.7 1003.3 723.3 994.7 751.2 991.3C779 988 807 990 834.8 988C862.7 986 890.3 980 918.2 981.8C946 983.7 974 993.3 1001.8 1000.5C1029.7 1007.7 1057.3 1012.3 1085.2 1007C1113 1001.7 1141 986.3 1168.8 979.8C1196.7 973.3 1224.3 975.7 1252.2 976.7C1280 977.7 1308 977.3 1335.8 982.5C1363.7 987.7 1391.3 998.3 1419.2 998.7C1447 999 1475 989 1502.8 983.7C1530.7 978.3 1558.3 977.7 1586.2 977.7C1614 977.7 1642 978.3 1669.8 985.3C1697.7 992.3 1725.3 1005.7 1753.2 1008.7C1781 1011.7 1809 1004.3 1836.8 998C1864.7 991.7 1892.3 986.3 1906.2 983.7L1920 981L1920 1081L1906.2 1081C1892.3 1081 1864.7 1081 1836.8 1081C1809 1081 1781 1081 1753.2 1081C1725.3 1081 1697.7 1081 1669.8 1081C1642 1081 1614 1081 1586.2 1081C1558.3 1081 1530.7 1081 1502.8 1081C1475 1081 1447 1081 1419.2 1081C1391.3 1081 1363.7 1081 1335.8 1081C1308 1081 1280 1081 1252.2 1081C1224.3 1081 1196.7 1081 1168.8 1081C1141 1081 1113 1081 1085.2 1081C1057.3 1081 1029.7 1081 1001.8 1081C974 1081 946 1081 918.2 1081C890.3 1081 862.7 1081 834.8 1081C807 1081 779 1081 751.2 1081C723.3 1081 695.7 1081 667.8 1081C640 1081 612 1081 584.2 1081C556.3 1081 528.7 1081 500.8 1081C473 1081 445 1081 417.2 1081C389.3 1081 361.7 1081 333.8 1081C306 1081 278 1081 250.2 1081C222.3 1081 194.7 1081 166.8 1081C139 1081 111 1081 83.2 1081C55.3 1081 27.7 1081 13.8 1081L0 1081Z" fill="#fa7268"></path><path d="M0 1034L13.8 1032C27.7 1030 55.3 1026 83.2 1021.5C111 1017 139 1012 166.8 1007.7C194.7 1003.3 222.3 999.7 250.2 1004.8C278 1010 306 1024 333.8 1029.2C361.7 1034.3 389.3 1030.7 417.2 1027.3C445 1024 473 1021 500.8 1019.3C528.7 1017.7 556.3 1017.3 584.2 1017.5C612 1017.7 640 1018.3 667.8 1019C695.7 1019.7 723.3 1020.3 751.2 1018.5C779 1016.7 807 1012.3 834.8 1012.5C862.7 1012.7 890.3 1017.3 918.2 1014.8C946 1012.3 974 1002.7 1001.8 1005.3C1029.7 1008 1057.3 1023 1085.2 1023C1113 1023 1141 1008 1168.8 1000.8C1196.7 993.7 1224.3 994.3 1252.2 996.5C1280 998.7 1308 1002.3 1335.8 1006.3C1363.7 1010.3 1391.3 1014.7 1419.2 1016.8C1447 1019 1475 1019 1502.8 1018C1530.7 1017 1558.3 1015 1586.2 1017.8C1614 1020.7 1642 1028.3 1669.8 1030.3C1697.7 1032.3 1725.3 1028.7 1753.2 1024.8C1781 1021 1809 1017 1836.8 1014.2C1864.7 1011.3 1892.3 1009.7 1906.2 1008.8L1920 1008L1920 1081L1906.2 1081C1892.3 1081 1864.7 1081 1836.8 1081C1809 1081 1781 1081 1753.2 1081C1725.3 1081 1697.7 1081 1669.8 1081C1642 1081 1614 1081 1586.2 1081C1558.3 1081 1530.7 1081 1502.8 1081C1475 1081 1447 1081 1419.2 1081C1391.3 1081 1363.7 1081 1335.8 1081C1308 1081 1280 1081 1252.2 1081C1224.3 1081 1196.7 1081 1168.8 1081C1141 1081 1113 1081 1085.2 1081C1057.3 1081 1029.7 1081 1001.8 1081C974 1081 946 1081 918.2 1081C890.3 1081 862.7 1081 834.8 1081C807 1081 779 1081 751.2 1081C723.3 1081 695.7 1081 667.8 1081C640 1081 612 1081 584.2 1081C556.3 1081 528.7 1081 500.8 1081C473 1081 445 1081 417.2 1081C389.3 1081 361.7 1081 333.8 1081C306 1081 278 1081 250.2 1081C222.3 1081 194.7 1081 166.8 1081C139 1081 111 1081 83.2 1081C55.3 1081 27.7 1081 13.8 1081L0 1081Z" fill="#eb5967"></path><path d="M0 1044L13.8 1045.7C27.7 1047.3 55.3 1050.7 83.2 1046.7C111 1042.7 139 1031.3 166.8 1028.3C194.7 1025.3 222.3 1030.7 250.2 1034.7C278 1038.7 306 1041.3 333.8 1044.3C361.7 1047.3 389.3 1050.7 417.2 1047.5C445 1044.3 473 1034.7 500.8 1030.8C528.7 1027 556.3 1029 584.2 1033.7C612 1038.3 640 1045.7 667.8 1043.8C695.7 1042 723.3 1031 751.2 1027C779 1023 807 1026 834.8 1026C862.7 1026 890.3 1023 918.2 1023.5C946 1024 974 1028 1001.8 1029.7C1029.7 1031.3 1057.3 1030.7 1085.2 1030.7C1113 1030.7 1141 1031.3 1168.8 1030.7C1196.7 1030 1224.3 1028 1252.2 1028.8C1280 1029.7 1308 1033.3 1335.8 1033.3C1363.7 1033.3 1391.3 1029.7 1419.2 1028C1447 1026.3 1475 1026.7 1502.8 1030.3C1530.7 1034 1558.3 1041 1586.2 1039.5C1614 1038 1642 1028 1669.8 1029.7C1697.7 1031.3 1725.3 1044.7 1753.2 1048C1781 1051.3 1809 1044.7 1836.8 1038C1864.7 1031.3 1892.3 1024.7 1906.2 1021.3L1920 1018L1920 1081L1906.2 1081C1892.3 1081 1864.7 1081 1836.8 1081C1809 1081 1781 1081 1753.2 1081C1725.3 1081 1697.7 1081 1669.8 1081C1642 1081 1614 1081 1586.2 1081C1558.3 1081 1530.7 1081 1502.8 1081C1475 1081 1447 1081 1419.2 1081C1391.3 1081 1363.7 1081 1335.8 1081C1308 1081 1280 1081 1252.2 1081C1224.3 1081 1196.7 1081 1168.8 1081C1141 1081 1113 1081 1085.2 1081C1057.3 1081 1029.7 1081 1001.8 1081C974 1081 946 1081 918.2 1081C890.3 1081 862.7 1081 834.8 1081C807 1081 779 1081 751.2 1081C723.3 1081 695.7 1081 667.8 1081C640 1081 612 1081 584.2 1081C556.3 1081 528.7 1081 500.8 1081C473 1081 445 1081 417.2 1081C389.3 1081 361.7 1081 333.8 1081C306 1081 278 1081 250.2 1081C222.3 1081 194.7 1081 166.8 1081C139 1081 111 1081 83.2 1081C55.3 1081 27.7 1081 13.8 1081L0 1081Z" fill="#da3f67"></path><path d="M0 1067L13.8 1068C27.7 1069 55.3 1071 83.2 1071.5C111 1072 139 1071 166.8 1065.7C194.7 1060.3 222.3 1050.7 250.2 1045.8C278 1041 306 1041 333.8 1045.5C361.7 1050 389.3 1059 417.2 1059.3C445 1059.7 473 1051.3 500.8 1052.5C528.7 1053.7 556.3 1064.3 584.2 1067.3C612 1070.3 640 1065.7 667.8 1062.8C695.7 1060 723.3 1059 751.2 1056.3C779 1053.7 807 1049.3 834.8 1052.3C862.7 1055.3 890.3 1065.7 918.2 1066.7C946 1067.7 974 1059.3 1001.8 1055.2C1029.7 1051 1057.3 1051 1085.2 1053.2C1113 1055.3 1141 1059.7 1168.8 1061.7C1196.7 1063.7 1224.3 1063.3 1252.2 1064.3C1280 1065.3 1308 1067.7 1335.8 1066C1363.7 1064.3 1391.3 1058.7 1419.2 1057.3C1447 1056 1475 1059 1502.8 1058.2C1530.7 1057.3 1558.3 1052.7 1586.2 1051.5C1614 1050.3 1642 1052.7 1669.8 1051C1697.7 1049.3 1725.3 1043.7 1753.2 1046.7C1781 1049.7 1809 1061.3 1836.8 1063.2C1864.7 1065 1892.3 1057 1906.2 1053L1920 1049L1920 1081L1906.2 1081C1892.3 1081 1864.7 1081 1836.8 1081C1809 1081 1781 1081 1753.2 1081C1725.3 1081 1697.7 1081 1669.8 1081C1642 1081 1614 1081 1586.2 1081C1558.3 1081 1530.7 1081 1502.8 1081C1475 1081 1447 1081 1419.2 1081C1391.3 1081 1363.7 1081 1335.8 1081C1308 1081 1280 1081 1252.2 1081C1224.3 1081 1196.7 1081 1168.8 1081C1141 1081 1113 1081 1085.2 1081C1057.3 1081 1029.7 1081 1001.8 1081C974 1081 946 1081 918.2 1081C890.3 1081 862.7 1081 834.8 1081C807 1081 779 1081 751.2 1081C723.3 1081 695.7 1081 667.8 1081C640 1081 612 1081 584.2 1081C556.3 1081 528.7 1081 500.8 1081C473 1081 445 1081 417.2 1081C389.3 1081 361.7 1081 333.8 1081C306 1081 278 1081 250.2 1081C222.3 1081 194.7 1081 166.8 1081C139 1081 111 1081 83.2 1081C55.3 1081 27.7 1081 13.8 1081L0 1081Z" fill="#c62368"></path></svg>