<svg id="visual" viewBox="0 0 960 300" width="960" height="300" xmlns="http://www.w3.org/2000/svg" xmlns:xlink="http://www.w3.org/1999/xlink" version="1.1"><rect x="0" y="0" width="960" height="300" fill="#17141d"></rect><path d="M0 147L7 153.7C14 160.3 28 173.7 41.8 177.8C55.7 182 69.3 177 83.2 174.5C97 172 111 172 125 171.8C139 171.7 153 171.3 167 173C181 174.7 195 178.3 208.8 178.3C222.7 178.3 236.3 174.7 250.2 171.3C264 168 278 165 292 163.7C306 162.3 320 162.7 334 163.5C348 164.3 362 165.7 375.8 169.5C389.7 173.3 403.3 179.7 417.2 183.3C431 187 445 188 459 181.5C473 175 487 161 501 157.5C515 154 529 161 542.8 166.7C556.7 172.3 570.3 176.7 584.2 172.8C598 169 612 157 626 152.7C640 148.3 654 151.7 668 153.8C682 156 696 157 709.8 161.2C723.7 165.3 737.3 172.7 751.2 175.7C765 178.7 779 177.3 793 177.5C807 177.7 821 179.3 835 176C849 172.7 863 164.3 876.8 161C890.7 157.7 904.3 159.3 918.2 158.5C932 157.7 946 154.3 953 152.7L960 151L960 301L953 301C946 301 932 301 918.2 301C904.3 301 890.7 301 876.8 301C863 301 849 301 835 301C821 301 807 301 793 301C779 301 765 301 751.2 301C737.3 301 723.7 301 709.8 301C696 301 682 301 668 301C654 301 640 301 626 301C612 301 598 301 584.2 301C570.3 301 556.7 301 542.8 301C529 301 515 301 501 301C487 301 473 301 459 301C445 301 431 301 417.2 301C403.3 301 389.7 301 375.8 301C362 301 348 301 334 301C320 301 306 301 292 301C278 301 264 301 250.2 301C236.3 301 222.7 301 208.8 301C195 301 181 301 167 301C153 301 139 301 125 301C111 301 97 301 83.2 301C69.3 301 55.7 301 41.8 301C28 301 14 301 7 301L0 301Z" fill="#fa7268"></path><path d="M0 204L7 200.2C14 196.3 28 188.7 41.8 188C55.7 187.3 69.3 193.7 83.2 195.2C97 196.7 111 193.3 125 190.7C139 188 153 186 167 189.8C181 193.7 195 203.3 208.8 202.3C222.7 201.3 236.3 189.7 250.2 184C264 178.3 278 178.7 292 183.5C306 188.3 320 197.7 334 201.5C348 205.3 362 203.7 375.8 199C389.7 194.3 403.3 186.7 417.2 183.5C431 180.3 445 181.7 459 185C473 188.3 487 193.7 501 198.7C515 203.7 529 208.3 542.8 210.8C556.7 213.3 570.3 213.7 584.2 211.3C598 209 612 204 626 198.2C640 192.3 654 185.7 668 185.3C682 185 696 191 709.8 195.2C723.7 199.3 737.3 201.7 751.2 199.2C765 196.7 779 189.3 793 190.5C807 191.7 821 201.3 835 205.2C849 209 863 207 876.8 203.7C890.7 200.3 904.3 195.7 918.2 194.3C932 193 946 195 953 196L960 197L960 301L953 301C946 301 932 301 918.2 301C904.3 301 890.7 301 876.8 301C863 301 849 301 835 301C821 301 807 301 793 301C779 301 765 301 751.2 301C737.3 301 723.7 301 709.8 301C696 301 682 301 668 301C654 301 640 301 626 301C612 301 598 301 584.2 301C570.3 301 556.7 301 542.8 301C529 301 515 301 501 301C487 301 473 301 459 301C445 301 431 301 417.2 301C403.3 301 389.7 301 375.8 301C362 301 348 301 334 301C320 301 306 301 292 301C278 301 264 301 250.2 301C236.3 301 222.7 301 208.8 301C195 301 181 301 167 301C153 301 139 301 125 301C111 301 97 301 83.2 301C69.3 301 55.7 301 41.8 301C28 301 14 301 7 301L0 301Z" fill="#eb5967"></path><path d="M0 216L7 220.8C14 225.7 28 235.3 41.8 239C55.7 242.7 69.3 240.3 83.2 240.5C97 240.7 111 243.3 125 244.5C139 245.7 153 245.3 167 244.8C181 244.3 195 243.7 208.8 238.2C222.7 232.7 236.3 222.3 250.2 221C264 219.7 278 227.3 292 227.5C306 227.7 320 220.3 334 218.8C348 217.3 362 221.7 375.8 226.8C389.7 232 403.3 238 417.2 235.5C431 233 445 222 459 218.2C473 214.3 487 217.7 501 223C515 228.3 529 235.7 542.8 239.2C556.7 242.7 570.3 242.3 584.2 241.5C598 240.7 612 239.3 626 235.8C640 232.3 654 226.7 668 228.2C682 229.7 696 238.3 709.8 237C723.7 235.7 737.3 224.3 751.2 219.5C765 214.7 779 216.3 793 220C807 223.7 821 229.3 835 234.3C849 239.3 863 243.7 876.8 242.3C890.7 241 904.3 234 918.2 230.3C932 226.7 946 226.3 953 226.2L960 226L960 301L953 301C946 301 932 301 918.2 301C904.3 301 890.7 301 876.8 301C863 301 849 301 835 301C821 301 807 301 793 301C779 301 765 301 751.2 301C737.3 301 723.7 301 709.8 301C696 301 682 301 668 301C654 301 640 301 626 301C612 301 598 301 584.2 301C570.3 301 556.7 301 542.8 301C529 301 515 301 501 301C487 301 473 301 459 301C445 301 431 301 417.2 301C403.3 301 389.7 301 375.8 301C362 301 348 301 334 301C320 301 306 301 292 301C278 301 264 301 250.2 301C236.3 301 222.7 301 208.8 301C195 301 181 301 167 301C153 301 139 301 125 301C111 301 97 301 83.2 301C69.3 301 55.7 301 41.8 301C28 301 14 301 7 301L0 301Z" fill="#da3f67"></path><path d="M0 249L7 253.5C14 258 28 267 41.8 268.3C55.7 269.7 69.3 263.3 83.2 260.2C97 257 111 257 125 255.8C139 254.7 153 252.3 167 254.8C181 257.3 195 264.7 208.8 269C222.7 273.3 236.3 274.7 250.2 272.2C264 269.7 278 263.3 292 264C306 264.7 320 272.3 334 270.7C348 269 362 258 375.8 253C389.7 248 403.3 249 417.2 249.2C431 249.3 445 248.7 459 251.7C473 254.7 487 261.3 501 262.7C515 264 529 260 542.8 259.5C556.7 259 570.3 262 584.2 265.8C598 269.7 612 274.3 626 273.5C640 272.7 654 266.3 668 265.3C682 264.3 696 268.7 709.8 270.8C723.7 273 737.3 273 751.2 271C765 269 779 265 793 264.3C807 263.7 821 266.3 835 267.3C849 268.3 863 267.7 876.8 268.8C890.7 270 904.3 273 918.2 273.8C932 274.7 946 273.3 953 272.7L960 272L960 301L953 301C946 301 932 301 918.2 301C904.3 301 890.7 301 876.8 301C863 301 849 301 835 301C821 301 807 301 793 301C779 301 765 301 751.2 301C737.3 301 723.7 301 709.8 301C696 301 682 301 668 301C654 301 640 301 626 301C612 301 598 301 584.2 301C570.3 301 556.7 301 542.8 301C529 301 515 301 501 301C487 301 473 301 459 301C445 301 431 301 417.2 301C403.3 301 389.7 301 375.8 301C362 301 348 301 334 301C320 301 306 301 292 301C278 301 264 301 250.2 301C236.3 301 222.7 301 208.8 301C195 301 181 301 167 301C153 301 139 301 125 301C111 301 97 301 83.2 301C69.3 301 55.7 301 41.8 301C28 301 14 301 7 301L0 301Z" fill="#c62368"></path></svg>