<svg id="visual" viewBox="0 0 1960 1080" width="1960" height="1080" xmlns="http://www.w3.org/2000/svg" xmlns:xlink="http://www.w3.org/1999/xlink" version="1.1"><rect x="0" y="0" width="1960" height="1080" fill="#931C1C"></rect><path d="M0 529L280 436L560 392L840 421L1120 510L1400 360L1680 413L1960 399L1960 0L1680 0L1400 0L1120 0L840 0L560 0L280 0L0 0Z" fill="#f5730a"></path><path d="M0 374L280 312L560 355L840 269L1120 318L1400 263L1680 415L1960 341L1960 0L1680 0L1400 0L1120 0L840 0L560 0L280 0L0 0Z" fill="#da5b09"></path><path d="M0 261L280 194L560 203L840 330L1120 308L1400 287L1680 278L1960 256L1960 0L1680 0L1400 0L1120 0L840 0L560 0L280 0L0 0Z" fill="#be4407"></path><path d="M0 123L280 142L560 137L840 231L1120 179L1400 143L1680 177L1960 188L1960 0L1680 0L1400 0L1120 0L840 0L560 0L280 0L0 0Z" fill="#a32d04"></path><path d="M0 106L280 95L560 84L840 137L1120 143L1400 112L1680 101L1960 94L1960 0L1680 0L1400 0L1120 0L840 0L560 0L280 0L0 0Z" fill="#871400"></path></svg>