<svg id="visual" viewBox="0 0 1960 1080" width="1960" height="1080" xmlns="http://www.w3.org/2000/svg" xmlns:xlink="http://www.w3.org/1999/xlink" version="1.1"><rect x="0" y="0" width="1960" height="1080" fill="#17141d"></rect><path d="M0 182L280 487L560 236L840 467L1120 456L1400 292L1680 465L1960 202L1960 1081L1680 1081L1400 1081L1120 1081L840 1081L560 1081L280 1081L0 1081Z" fill="#f5730a"></path><path d="M0 493L280 610L560 402L840 572L1120 385L1400 369L1680 528L1960 641L1960 1081L1680 1081L1400 1081L1120 1081L840 1081L560 1081L280 1081L0 1081Z" fill="#ee5a32"></path><path d="M0 637L280 741L560 670L840 715L1120 629L1400 664L1680 541L1960 501L1960 1081L1680 1081L1400 1081L1120 1081L840 1081L560 1081L280 1081L0 1081Z" fill="#e04648"></path><path d="M0 789L280 672L560 836L840 652L1120 707L1400 869L1680 791L1960 671L1960 1081L1680 1081L1400 1081L1120 1081L840 1081L560 1081L280 1081L0 1081Z" fill="#cb3958"></path><path d="M0 890L280 829L560 935L840 919L1120 872L1400 901L1680 841L1960 946L1960 1081L1680 1081L1400 1081L1120 1081L840 1081L560 1081L280 1081L0 1081Z" fill="#b03463"></path></svg>