<svg id="visual" viewBox="0 0 1960 1080" width="1960" height="1080" xmlns="http://www.w3.org/2000/svg" xmlns:xlink="http://www.w3.org/1999/xlink" version="1.1"><path d="M0 152L32.7 139.5C65.3 127 130.7 102 196 84C261.3 66 326.7 55 392 80.2C457.3 105.3 522.7 166.7 588 168.5C653.3 170.3 718.7 112.7 784 76.7C849.3 40.7 914.7 26.3 980 42.5C1045.3 58.7 1110.7 105.3 1176 112.5C1241.3 119.7 1306.7 87.3 1372 87.3C1437.3 87.3 1502.7 119.7 1568 134C1633.3 148.3 1698.7 144.7 1764 132.2C1829.3 119.7 1894.7 98.3 1927.3 87.7L1960 77L1960 0L1927.3 0C1894.7 0 1829.3 0 1764 0C1698.7 0 1633.3 0 1568 0C1502.7 0 1437.3 0 1372 0C1306.7 0 1241.3 0 1176 0C1110.7 0 1045.3 0 980 0C914.7 0 849.3 0 784 0C718.7 0 653.3 0 588 0C522.7 0 457.3 0 392 0C326.7 0 261.3 0 196 0C130.7 0 65.3 0 32.7 0L0 0Z" fill="#f7770f"></path><path d="M0 163L32.7 179.2C65.3 195.3 130.7 227.7 196 290.7C261.3 353.7 326.7 447.3 392 496C457.3 544.7 522.7 548.3 588 512.3C653.3 476.3 718.7 400.7 784 341.2C849.3 281.7 914.7 238.3 980 256.3C1045.3 274.3 1110.7 353.7 1176 380.7C1241.3 407.7 1306.7 382.3 1372 378.7C1437.3 375 1502.7 393 1568 416.5C1633.3 440 1698.7 469 1764 463.7C1829.3 458.3 1894.7 418.7 1927.3 398.8L1960 379L1960 75L1927.3 85.7C1894.7 96.3 1829.3 117.7 1764 130.2C1698.7 142.7 1633.3 146.3 1568 132C1502.7 117.7 1437.3 85.3 1372 85.3C1306.7 85.3 1241.3 117.7 1176 110.5C1110.7 103.3 1045.3 56.7 980 40.5C914.7 24.3 849.3 38.7 784 74.7C718.7 110.7 653.3 168.3 588 166.5C522.7 164.7 457.3 103.3 392 78.2C326.7 53 261.3 64 196 82C130.7 100 65.3 125 32.7 137.5L0 150Z" fill="#ff5238"></path><path d="M0 325L32.7 319.7C65.3 314.3 130.7 303.7 196 343.3C261.3 383 326.7 473 392 546.7C457.3 620.3 522.7 677.7 588 683C653.3 688.3 718.7 641.7 784 595C849.3 548.3 914.7 501.7 980 489C1045.3 476.3 1110.7 497.7 1176 499.3C1241.3 501 1306.7 483 1372 493.8C1437.3 504.7 1502.7 544.3 1568 553.3C1633.3 562.3 1698.7 540.7 1764 556.8C1829.3 573 1894.7 627 1927.3 654L1960 681L1960 377L1927.3 396.8C1894.7 416.7 1829.3 456.3 1764 461.7C1698.7 467 1633.3 438 1568 414.5C1502.7 391 1437.3 373 1372 376.7C1306.7 380.3 1241.3 405.7 1176 378.7C1110.7 351.7 1045.3 272.3 980 254.3C914.7 236.3 849.3 279.7 784 339.2C718.7 398.7 653.3 474.3 588 510.3C522.7 546.3 457.3 542.7 392 494C326.7 445.3 261.3 351.7 196 288.7C130.7 225.7 65.3 193.3 32.7 177.2L0 161Z" fill="#ff2458"></path><path d="M0 379L32.7 389.8C65.3 400.7 130.7 422.3 196 483.5C261.3 544.7 326.7 645.3 392 695.7C457.3 746 522.7 746 588 733.5C653.3 721 718.7 696 784 674.5C849.3 653 914.7 635 980 629.5C1045.3 624 1110.7 631 1176 631C1241.3 631 1306.7 624 1372 625.8C1437.3 627.7 1502.7 638.3 1568 631C1633.3 623.7 1698.7 598.3 1764 620C1829.3 641.7 1894.7 710.3 1927.3 744.7L1960 779L1960 679L1927.3 652C1894.7 625 1829.3 571 1764 554.8C1698.7 538.7 1633.3 560.3 1568 551.3C1502.7 542.3 1437.3 502.7 1372 491.8C1306.7 481 1241.3 499 1176 497.3C1110.7 495.7 1045.3 474.3 980 487C914.7 499.7 849.3 546.3 784 593C718.7 639.7 653.3 686.3 588 681C522.7 675.7 457.3 618.3 392 544.7C326.7 471 261.3 381 196 341.3C130.7 301.7 65.3 312.3 32.7 317.7L0 323Z" fill="#ff0066"></path><path d="M0 789L32.7 787.3C65.3 785.7 130.7 782.3 196 802.2C261.3 822 326.7 865 392 892C457.3 919 522.7 930 588 903C653.3 876 718.7 811 784 820C849.3 829 914.7 912 980 919.2C1045.3 926.3 1110.7 857.7 1176 828.8C1241.3 800 1306.7 811 1372 812.8C1437.3 814.7 1502.7 807.3 1568 810.8C1633.3 814.3 1698.7 828.7 1764 839.5C1829.3 850.3 1894.7 857.7 1927.3 861.3L1960 865L1960 777L1927.3 742.7C1894.7 708.3 1829.3 639.7 1764 618C1698.7 596.3 1633.3 621.7 1568 629C1502.7 636.3 1437.3 625.7 1372 623.8C1306.7 622 1241.3 629 1176 629C1110.7 629 1045.3 622 980 627.5C914.7 633 849.3 651 784 672.5C718.7 694 653.3 719 588 731.5C522.7 744 457.3 744 392 693.7C326.7 643.3 261.3 542.7 196 481.5C130.7 420.3 65.3 398.7 32.7 387.8L0 377Z" fill="#ff2458"></path><path d="M0 941L32.7 944.5C65.3 948 130.7 955 196 978.3C261.3 1001.7 326.7 1041.3 392 1059.3C457.3 1077.3 522.7 1073.7 588 1052C653.3 1030.3 718.7 990.7 784 985.3C849.3 980 914.7 1009 980 1010.8C1045.3 1012.7 1110.7 987.3 1176 983.7C1241.3 980 1306.7 998 1372 992.7C1437.3 987.3 1502.7 958.7 1568 964.2C1633.3 969.7 1698.7 1009.3 1764 1029.2C1829.3 1049 1894.7 1049 1927.3 1049L1960 1049L1960 863L1927.3 859.3C1894.7 855.7 1829.3 848.3 1764 837.5C1698.7 826.7 1633.3 812.3 1568 808.8C1502.7 805.3 1437.3 812.7 1372 810.8C1306.7 809 1241.3 798 1176 826.8C1110.7 855.7 1045.3 924.3 980 917.2C914.7 910 849.3 827 784 818C718.7 809 653.3 874 588 901C522.7 928 457.3 917 392 890C326.7 863 261.3 820 196 800.2C130.7 780.3 65.3 783.7 32.7 785.3L0 787Z" fill="#ff5238"></path><path d="M0 1081L32.7 1081C65.3 1081 130.7 1081 196 1081C261.3 1081 326.7 1081 392 1081C457.3 1081 522.7 1081 588 1081C653.3 1081 718.7 1081 784 1081C849.3 1081 914.7 1081 980 1081C1045.3 1081 1110.7 1081 1176 1081C1241.3 1081 1306.7 1081 1372 1081C1437.3 1081 1502.7 1081 1568 1081C1633.3 1081 1698.7 1081 1764 1081C1829.3 1081 1894.7 1081 1927.3 1081L1960 1081L1960 1047L1927.3 1047C1894.7 1047 1829.3 1047 1764 1027.2C1698.7 1007.3 1633.3 967.7 1568 962.2C1502.7 956.7 1437.3 985.3 1372 990.7C1306.7 996 1241.3 978 1176 981.7C1110.7 985.3 1045.3 1010.7 980 1008.8C914.7 1007 849.3 978 784 983.3C718.7 988.7 653.3 1028.3 588 1050C522.7 1071.7 457.3 1075.3 392 1057.3C326.7 1039.3 261.3 999.7 196 976.3C130.7 953 65.3 946 32.7 942.5L0 939Z" fill="#f7770f"></path></svg>